<svg width="717" height="708" viewBox="0 0 717 708" fill="none" xmlns="http://www.w3.org/2000/svg">
<path d="M10.2892 132.525C14.0715 158.061 46.9924 199.976 102.997 250.554C214.378 351.162 382.728 454.091 478.262 480.003C509.368 488.443 530.266 487.927 538.699 478.522C542.389 474.406 543.724 468.664 542.656 461.458C538.873 435.924 505.951 394.009 449.948 343.431C338.567 242.821 170.217 139.892 74.6731 113.976C43.5685 105.544 22.6718 106.051 14.2352 115.456C10.5477 119.572 9.21228 125.312 10.2806 132.518L10.2892 132.525ZM541.541 461.634C542.54 468.383 541.317 473.732 537.903 477.533C529.744 486.63 509.189 487.036 478.461 478.698C383.057 452.821 214.921 350.01 103.655 249.508C48.7052 199.871 15.0813 157.171 11.4058 132.36C10.4064 125.609 11.6299 120.26 15.0417 116.46C23.2009 107.362 43.758 106.955 74.4784 115.295C169.881 141.172 338.026 243.992 449.294 344.494C504.24 394.129 537.865 436.822 541.541 461.641V461.634Z" fill="white"/>
<path d="M7.90265 138.063C9.83258 151.09 19.1497 168.16 35.6041 188.781C52.5719 210.05 76.305 234.062 106.138 260.14C221.591 361.062 393.401 461.317 489.124 483.626C519.279 490.659 539.623 489.294 547.96 479.687C551.725 475.343 553.084 469.393 551.988 461.99C550.058 448.962 540.74 431.894 524.287 411.273C507.317 390.004 483.586 365.992 453.751 339.912C338.3 238.99 166.488 138.737 70.7581 116.42C40.6029 109.395 20.2663 110.751 11.9297 120.357C8.16284 124.701 6.80499 130.652 7.90094 138.055L7.90265 138.063ZM550.837 462.161C551.864 469.098 550.615 474.65 547.124 478.679C539.063 487.97 519.066 489.209 489.293 482.27C393.717 459.997 222.125 359.851 106.796 259.044C48.5346 208.118 12.9067 163.959 9.0451 137.893C8.01813 130.955 9.26569 125.395 12.7585 121.374C20.8194 112.084 40.8183 110.844 70.5824 117.777C166.167 140.059 337.756 240.195 453.081 341.01C511.343 391.936 546.969 436.097 550.83 462.163L550.837 462.161Z" fill="white"/>
<path d="M5.84015 144.043C9.95679 171.834 47.8351 217.809 109.758 270.164C229.245 371.196 404.33 468.409 500.044 486.878C529.589 492.576 548.802 490.431 557.13 480.485C560.98 475.895 562.358 469.707 561.232 462.096C557.115 434.305 519.237 388.329 457.313 335.975C337.826 234.943 162.742 137.727 67.0208 119.254C37.4755 113.553 18.2693 115.707 9.93439 125.646C6.08484 130.235 4.70636 136.423 5.83325 144.036L5.84015 144.043ZM560.051 462.261C561.111 469.41 559.832 475.2 556.257 479.467C548.31 488.949 528.919 491.029 500.173 485.486C404.618 467.044 229.774 369.945 110.417 269.027C48.764 216.898 11.0734 171.279 7.01196 143.87C5.95392 136.721 7.23248 130.931 10.8063 126.665C18.7552 117.183 38.1459 115.101 66.8829 120.647C162.446 139.087 337.292 236.195 456.648 337.105C518.301 389.234 555.991 434.852 560.051 462.261Z" fill="white"/>
<path d="M4.12372 150.463C8.45746 179.712 48.4639 227.161 113.885 280.629C237.366 381.552 415.509 475.359 511.001 489.74C539.435 494.024 558.014 491.048 566.204 480.888C570.131 476.02 571.531 469.581 570.369 461.741C566.035 432.492 526.029 385.043 460.609 331.574C337.135 230.65 158.983 136.845 63.4846 122.465C35.0526 118.181 16.4787 121.156 8.28857 131.316C4.36151 136.182 2.96234 142.623 4.12372 150.463ZM569.158 461.92C570.25 469.297 568.944 475.331 565.291 479.868C557.478 489.554 538.736 492.471 511.091 488.303C415.77 473.947 237.88 380.253 114.543 279.45C49.4099 226.213 9.60333 179.135 5.3299 150.286C4.23743 142.907 5.54187 136.873 9.19672 132.337C17.0078 122.651 35.7504 119.733 63.3881 123.902C158.718 138.258 336.613 231.951 459.944 332.754C525.078 385.992 564.884 433.069 569.158 461.92Z" fill="white"/>
<path d="M2.76776 157.321C7.3324 188.142 49.5238 237.055 118.524 291.526C245.931 392.115 426.92 482.124 521.968 492.168C549.226 495.046 567.118 491.255 575.151 480.894C579.154 475.734 580.574 469.007 579.375 460.914C574.81 430.1 532.619 381.18 463.62 326.709C336.21 226.12 155.222 136.113 60.1677 126.069C32.9178 123.19 15.0246 126.98 6.9895 137.341C2.98663 142.502 1.56848 149.228 2.76776 157.321ZM578.134 461.098C579.264 468.726 577.939 475.04 574.2 479.861C566.544 489.742 548.497 493.488 522.014 490.688C427.146 480.657 246.439 390.767 119.181 290.304C50.4905 236.073 8.50934 187.535 4.00671 157.139C2.87805 149.509 4.20319 143.197 7.94073 138.374C15.6001 128.493 33.645 124.755 60.1212 127.549C154.989 137.578 335.703 227.469 462.962 327.938C531.652 382.172 573.633 430.708 578.136 461.105L578.134 461.098Z" fill="white"/>
<path d="M1.79919 164.629C6.61371 197.128 51.0469 247.522 123.705 302.883C254.977 402.9 438.558 488.711 532.939 494.163C558.95 495.668 576.121 491.069 583.972 480.504C588.045 475.016 589.481 467.987 588.242 459.625C583.429 427.128 538.996 376.739 466.337 321.372C335.064 221.356 151.483 135.542 57.0952 130.085C31.0825 128.579 13.9199 133.177 6.06921 143.743C1.99567 149.231 0.560242 156.26 1.79749 164.622L1.79919 164.629ZM586.968 459.814C588.138 467.711 586.793 474.327 582.977 479.468C575.384 489.69 558.553 494.12 532.937 492.64C438.76 487.192 255.478 401.503 124.371 301.611C52.0343 246.495 7.82159 196.499 3.07263 164.441C1.90259 156.543 3.24664 149.927 7.06519 144.785C14.6505 134.567 31.4874 130.133 57.0969 131.617C151.281 137.062 334.566 222.76 465.67 322.644C538.007 377.761 582.219 427.755 586.968 459.814Z" fill="white"/>
<path d="M1.22369 172.371C6.30701 206.685 53.0372 258.545 129.44 314.664C264.497 413.863 450.412 495.061 543.872 495.671C568.586 495.83 584.99 490.455 592.622 479.689C596.761 473.849 598.212 466.493 596.93 457.838C591.848 423.524 545.12 371.664 468.715 315.545C333.656 216.346 147.743 135.148 54.2744 134.54C29.5627 134.379 13.1652 139.754 5.52643 150.522C1.38745 156.362 -0.0651855 163.716 1.21686 172.371H1.22369ZM595.624 458.032C596.837 466.224 595.477 473.156 591.585 478.643C584.194 489.058 568.122 494.26 543.809 494.101C450.557 493.491 264.968 412.403 130.091 313.346C91.6411 285.097 60.8397 258.114 38.5472 233.131C17.3697 209.398 4.91473 188.317 2.52295 172.17C1.30988 163.978 2.67114 157.046 6.56201 151.559C13.9457 141.146 30.0176 135.944 54.3331 136.102C147.59 136.711 333.179 217.797 468.057 316.865C506.507 345.114 537.309 372.097 559.601 397.079C580.779 420.812 593.234 441.893 595.626 458.041L595.624 458.032Z" fill="white"/>
<path d="M1.06519 180.558C3.64307 197.958 16.9148 220.225 39.445 244.956C62.9833 270.786 95.3769 298.358 135.742 326.904C274.488 425.024 462.457 501.19 554.747 496.689C578.113 495.55 593.713 489.413 601.103 478.448C605.299 472.226 606.75 464.53 605.422 455.565C602.844 438.164 589.57 415.899 567.042 391.167C543.504 365.339 511.11 337.765 470.745 309.228C331.999 211.108 144.03 134.941 51.7328 139.442C28.3652 140.583 12.7758 146.719 5.38342 157.683C1.18756 163.906 -0.261597 171.601 1.06519 180.567V180.558ZM604.086 455.763C605.346 464.263 603.981 471.549 600.026 477.409C592.874 488.013 577.6 493.963 554.63 495.085C462.569 499.576 274.95 423.516 136.4 325.542C96.1299 297.066 63.8104 269.564 40.3479 243.815C18.0435 219.341 4.92505 197.402 2.4024 180.369C1.14276 171.866 2.50751 164.583 6.46216 158.722C13.6132 148.118 28.8873 142.168 51.8569 141.046C143.925 136.554 331.544 212.616 470.096 310.589C510.364 339.066 542.683 366.566 566.148 392.315C588.449 416.789 601.57 438.728 604.093 455.761L604.086 455.763Z" fill="white"/>
<path d="M1.33752 189.164C4.05835 207.532 18.028 230.712 41.7265 256.201C66.1229 282.436 101.018 311.259 142.633 339.555C284.969 436.329 474.683 507.018 565.546 497.146C587.523 494.756 602.279 487.895 609.397 476.737C613.631 470.11 615.082 462.04 613.707 452.758C610.986 434.385 597.018 411.209 573.319 385.718C548.921 359.483 514.026 330.659 472.411 302.366C330.076 205.592 140.355 134.903 49.491 144.775C27.5225 147.165 12.7672 154.027 5.6402 165.184C1.40637 171.811 -0.0444946 179.881 1.33063 189.164H1.33752ZM612.331 452.97C613.639 461.796 612.273 469.447 608.272 475.705C601.379 486.495 586.937 493.162 565.353 495.501C474.738 505.355 285.401 434.758 143.286 338.135C60.7949 282.052 8.24213 226.277 2.71423 188.958C1.40637 180.132 2.77289 172.482 6.77405 166.223C13.6684 155.433 28.1084 148.766 49.6943 146.426C140.31 136.581 329.652 207.17 471.762 303.793C554.251 359.876 606.802 415.641 612.331 452.97Z" fill="white"/>
<path d="M2.05957 198.193C7.99927 238.287 63.3555 296.027 150.132 352.649C295.928 447.785 487.082 512.563 576.237 497.051C618.589 489.68 624.365 467.098 621.751 449.451C615.812 409.357 560.463 351.617 473.678 294.996C327.884 199.859 136.729 135.082 47.5663 150.594C5.21643 157.966 -0.554504 180.548 2.05957 198.193ZM620.34 449.661C623.929 473.894 608.582 489.706 575.961 495.378C487.074 510.85 296.338 446.161 150.783 351.18C64.4084 294.813 9.3382 237.55 3.47772 197.983C-0.111572 173.75 15.2383 157.945 47.8558 152.266C136.752 136.793 327.487 201.482 473.042 296.463C559.417 352.829 614.486 410.094 620.347 449.66L620.34 449.661Z" fill="white"/>
<path d="M3.23999 207.629C9.54327 250.184 67.486 309.446 158.245 366.167C307.375 459.371 499.615 517.781 586.781 496.357C626.862 486.507 632.15 463.322 629.527 445.614C623.223 403.059 565.283 343.796 474.521 287.075C325.392 193.863 133.145 135.463 45.9793 156.887C5.8988 166.735 0.617371 189.918 3.23999 207.629ZM628.075 445.829C631.683 470.191 617.278 487.071 586.41 494.654C499.534 516.003 307.747 457.686 158.88 364.643C68.551 308.189 10.9114 249.407 4.69257 207.415C1.08429 183.06 15.4881 166.171 46.3567 158.588C133.24 137.238 325.027 195.555 473.892 288.598C564.221 345.052 621.861 403.834 628.081 445.827L628.075 445.829Z" fill="white"/>
<path d="M4.89935 217.461C11.5989 262.685 72.1971 323.492 166.996 380.116C319.316 471.09 512.278 522.644 597.158 495.042C627.01 485.336 640.797 466.734 637.023 441.256C630.324 396.031 569.725 335.225 474.927 278.609C322.614 187.633 129.638 136.082 44.761 163.683C14.9126 173.388 1.12738 191.989 4.90106 217.468L4.89935 217.461ZM635.53 441.476C639.155 465.954 625.724 483.88 596.685 493.324C512.12 520.82 319.637 469.329 167.617 378.535C120.54 350.416 80.8043 320.487 52.7031 291.979C25.5651 264.445 9.54327 238.599 6.37952 217.242C2.75403 192.765 16.186 174.839 45.2159 165.396C129.788 137.9 322.266 189.391 474.285 280.186C521.361 308.304 561.099 338.232 589.198 366.74C616.336 394.276 632.359 420.119 635.522 441.469L635.53 441.476Z" fill="white"/>
<path d="M7.04651 227.652C10.4722 250.778 27.4745 278.142 56.2253 306.777C85.7636 336.204 127.316 366.521 176.395 394.452C331.73 482.867 525.051 527.102 607.328 493.054C635.236 481.505 647.984 461.901 644.202 436.366C640.776 413.239 623.773 385.877 595.023 357.24C565.484 327.814 523.932 297.495 474.855 269.566C319.52 181.153 126.197 136.916 43.9134 170.965C16.0121 182.512 3.26416 202.117 7.04651 227.652ZM642.681 436.59C646.321 461.165 633.9 480.097 606.757 491.325C524.809 525.241 332.026 481.042 177.012 392.813C128.055 364.948 86.6218 334.72 57.192 305.404C28.7445 277.063 11.9317 250.096 8.57324 227.418C4.93396 202.844 17.3544 183.92 44.4907 172.685C126.444 138.768 319.227 182.959 474.242 271.198C523.193 299.061 564.631 329.289 594.056 358.606C622.503 386.945 639.315 413.915 642.673 436.583L642.681 436.59Z" fill="white"/>
<path d="M9.69305 238.196C13.334 262.778 31.1756 291.35 61.2877 320.825C92.2028 351.087 135.492 381.647 186.463 409.212C263.069 450.631 350.038 481.902 431.359 497.243C512.75 512.596 578.782 510.165 617.273 490.391C643.17 477.085 654.855 456.54 651.067 430.963C647.278 405.387 629.585 377.809 599.472 348.336C568.556 318.073 525.269 287.513 474.298 259.954C397.69 218.536 310.716 187.266 229.395 171.925C148.004 156.57 81.9724 159.003 43.4807 178.776C17.592 192.081 5.90558 212.626 9.69305 238.204V238.196ZM649.498 431.196C653.15 455.853 641.764 475.722 616.576 488.663C537.562 529.25 344.884 492.85 187.062 407.51C136.224 380.023 93.0678 349.551 62.2681 319.405C32.4749 290.24 14.8332 262.082 11.2611 237.963C7.68903 213.844 18.9963 193.439 44.1768 180.496C123.192 139.909 315.875 176.307 473.695 261.651C524.537 289.136 567.691 319.606 598.491 349.753C628.286 378.917 645.925 407.077 649.498 431.196Z" fill="white"/>
<path d="M12.8412 249.053C16.7201 275.233 35.4301 305.097 66.95 335.421C99.2953 366.536 144.332 397.286 197.201 424.346C275.09 464.203 362.653 492.681 443.773 504.532C524.969 516.395 590.024 510.163 626.948 486.993C650.774 472.038 661.371 450.623 657.583 425.046C653.794 399.471 634.993 369.002 603.473 338.68C571.136 307.563 526.093 276.813 473.223 249.753C395.333 209.898 307.769 181.42 226.652 169.568C145.455 157.706 80.4009 163.938 43.4772 187.106C19.6511 202.061 9.0589 223.477 12.8481 249.052L12.8412 249.053ZM655.967 425.294C659.626 449.999 649.308 470.742 626.122 485.294C550.377 532.827 358.225 504.695 197.789 422.596C92.6112 368.766 22.3565 302.183 14.4524 248.824C10.7941 224.126 21.1124 203.376 44.2991 188.833C120.049 141.298 312.203 169.428 472.637 251.528C577.817 305.357 648.071 371.942 655.975 425.301L655.967 425.294Z" fill="white"/>
<path d="M16.5061 260.187C25.0701 318 98.6902 386.847 208.636 439.87C287.705 477.997 375.699 503.48 456.42 511.621C537.236 519.771 601.12 509.56 636.311 482.861C658.029 466.388 667.508 444.18 663.726 418.653C655.163 360.84 581.542 291.993 471.603 238.976C392.538 200.85 304.535 175.366 223.82 167.226C143.005 159.076 79.1221 169.287 43.9301 195.986C22.2183 212.457 12.7393 234.657 16.5199 260.185L16.5061 260.187ZM662.068 418.891C665.78 443.952 656.787 464.908 635.347 481.173C563.202 535.905 372.029 516.556 209.199 438.039C154.581 411.705 107.916 380.928 74.2404 349.053C41.6141 318.162 22.2166 287.351 18.1569 259.942C14.4452 234.886 23.4314 213.934 44.8709 197.66C117.021 142.919 308.19 162.275 471.026 240.793C525.645 267.128 572.309 297.903 605.985 329.78C638.61 360.671 658.008 391.482 662.068 418.891Z" fill="white"/>
<path d="M20.6816 271.551C25.0998 301.377 45.6588 334.122 80.1442 366.269C115.474 399.199 164.096 430.141 220.769 455.749C300.903 491.968 389.171 514.235 469.3 518.451C549.533 522.675 612.047 508.281 645.331 477.921C664.899 460.069 673.257 437.196 669.491 411.774C665.073 381.946 644.513 349.194 610.029 317.054C574.7 284.126 526.079 253.192 469.405 227.576C389.269 191.357 301.003 169.09 220.874 164.874C140.642 160.649 78.1264 175.042 44.842 205.402C25.2739 223.246 16.9217 246.119 20.6885 271.551H20.6816ZM667.786 412.026C671.491 437.041 663.563 458.661 644.229 476.296C576.033 538.498 386.312 528.43 221.307 453.855C164.806 428.322 116.346 397.489 81.1644 364.694C47.0442 332.893 26.7126 300.598 22.3738 271.301C18.669 246.295 26.5955 224.666 45.9293 207.031C114.127 144.828 303.854 154.897 468.858 229.463C525.361 254.995 573.819 285.829 609.001 318.622C643.12 350.423 663.452 382.72 667.791 412.017L667.786 412.026Z" fill="white"/>
<path d="M25.3739 283.098C30.1022 315.016 51.6571 349.386 87.7003 382.501C124.593 416.387 175.049 447.333 233.61 471.978C314.703 506.11 403.051 524.944 482.375 525.018C561.819 525.092 622.756 506.331 653.951 472.176C671.607 452.851 678.635 430.076 674.841 404.458C670.113 372.538 648.564 338.168 612.514 305.054C575.623 271.167 525.166 240.221 466.605 215.576C385.511 181.446 297.165 162.611 217.835 162.537C138.39 162.463 77.4528 181.225 46.2499 215.38C28.6013 234.696 21.5726 257.48 25.3669 283.089L25.3739 283.098ZM673.108 404.714C676.795 429.607 669.935 451.776 652.727 470.618C588.838 540.537 401.057 540.275 234.132 470.02C175.759 445.457 125.48 414.635 88.7429 380.882C53.0735 348.121 31.7616 314.213 27.1143 282.839C23.4267 257.947 30.2866 235.778 47.4974 216.942C111.385 147.017 299.173 147.286 466.098 217.54C524.473 242.104 574.75 272.928 611.489 306.679C647.157 339.441 668.468 373.346 673.116 404.721L673.108 404.714Z" fill="white"/>
<path d="M30.576 294.767C35.6456 328.992 58.2396 365.13 95.9094 399.259C134.429 434.161 186.742 465.032 247.178 488.534C329.097 520.386 417.343 535.559 495.657 531.273C574.095 526.977 633.23 503.648 662.165 465.575C677.621 445.245 683.549 422.082 679.794 396.735C674.725 362.509 652.13 326.371 614.46 292.243C575.94 257.34 523.634 226.468 463.191 202.968C381.272 171.115 293.026 155.934 214.712 160.228C136.274 164.524 77.134 187.864 48.197 225.925C32.7421 246.257 26.8127 269.419 30.5674 294.76L30.576 294.767ZM678.021 397.005C681.677 421.686 675.879 444.263 660.8 464.113C601.588 542.01 416.259 552.061 247.671 486.514C127.217 439.682 42.6967 364.312 32.3578 294.502C28.7012 269.821 34.491 247.246 49.5773 227.402C108.79 149.498 294.125 139.445 462.707 204.994C583.16 251.826 667.674 327.198 678.014 397.007L678.021 397.005Z" fill="white"/>
<path d="M36.2798 306.478C41.7267 343.251 65.4114 381.309 104.782 416.535C144.995 452.518 199.18 483.254 261.487 505.412C344.097 534.79 432.049 546.086 509.123 537.208C586.333 528.309 643.44 500.22 669.922 458.112C683.197 437.005 688.047 413.646 684.347 388.67C678.9 351.898 655.216 313.841 615.851 278.612C575.639 242.63 521.453 211.895 459.145 189.736C376.529 160.351 288.584 149.062 211.511 157.94C134.3 166.838 77.1926 194.927 50.7043 237.047C37.436 258.152 32.5819 281.513 36.2798 306.478ZM682.518 388.941C686.127 413.304 681.379 436.119 668.411 456.745C614.245 542.874 431.909 563.765 261.942 503.315C199.854 481.231 145.884 450.631 105.857 414.811C66.8951 379.949 43.4757 342.393 38.115 306.207C34.5067 281.843 39.2557 259.031 52.2241 238.411C106.388 152.276 288.732 131.381 458.692 191.834C520.781 213.918 574.75 244.518 614.776 280.337C653.737 315.198 677.158 352.755 682.518 388.941Z" fill="white"/>
<path d="M42.4675 318.152C48.3314 357.743 73.1758 397.917 114.311 434.313C156.283 471.449 212.376 501.969 276.527 522.582C359.686 549.299 447.124 556.469 522.729 542.773C598.471 529.05 653.317 496.012 677.157 449.725C688.286 428.122 692.093 404.764 688.47 380.304C682.605 340.715 657.761 300.54 616.626 264.145C574.653 227.007 518.563 196.487 454.41 175.875C371.245 149.159 283.812 141.98 208.207 155.683C132.468 169.408 77.6215 202.454 53.78 248.731C42.6501 270.336 38.8505 293.69 42.4726 318.145L42.4675 318.152ZM686.586 380.583C690.128 404.499 686.4 427.343 675.51 448.488C626.781 543.098 447.975 575.357 276.939 520.407C213.03 499.874 157.176 469.488 115.403 432.528C74.6887 396.502 50.1182 356.854 44.3439 317.868C40.8011 293.959 44.5301 271.115 55.4204 249.97C104.156 155.36 282.952 123.093 453.996 178.041C517.904 198.574 573.761 228.961 615.53 265.913C656.246 301.937 680.816 341.587 686.592 380.575L686.586 380.583Z" fill="white"/>
<path d="M49.117 329.683C52.2704 350.968 60.4364 372.411 73.3979 393.416C86.1872 414.156 103.386 434.05 124.51 452.558C168.318 490.938 226.343 521.177 292.313 540.017C375.873 563.87 462.583 566.686 536.473 547.945C610.507 529.164 662.841 490.981 683.835 440.413C692.885 418.619 695.685 395.513 692.163 371.735C689.01 350.449 680.843 329.01 667.881 307.996C655.093 287.254 637.893 267.36 616.769 248.854C572.961 210.474 514.937 180.232 448.968 161.395C365.407 137.541 278.691 134.724 204.806 153.467C130.774 172.246 78.4399 210.438 57.4398 261.005C48.3898 282.8 45.5862 305.9 49.1101 329.683H49.117ZM690.238 372.019C693.688 395.31 690.938 417.952 682.069 439.319C639.161 542.653 464.478 586.817 292.681 537.78C226.977 519.029 169.212 488.923 125.627 450.737C104.671 432.378 87.6243 412.66 74.9643 392.127C62.1957 371.425 54.1486 350.325 51.0504 329.406C47.6006 306.117 50.3508 283.475 59.2198 262.115C102.137 158.779 276.816 114.607 448.615 163.644C514.318 182.397 572.084 212.5 615.669 250.689C636.624 269.046 653.671 288.764 666.331 309.298C679.1 330 687.148 351.109 690.247 372.028L690.238 372.019Z" fill="white"/>
<path d="M56.2059 340.958C59.6143 363.969 68.2542 386.954 81.8947 409.274C95.337 431.265 113.325 452.134 135.371 471.285C181.104 511.028 241.092 540.913 308.851 557.72C392.65 578.502 478.413 576.723 550.334 552.708C622.393 528.644 671.969 485.119 689.924 430.15C696.99 408.525 698.854 385.948 695.464 363.059C692.073 340.169 683.414 317.063 669.776 294.741C656.333 272.752 638.345 251.881 616.299 232.73C570.567 192.987 510.579 163.104 442.818 146.295C359.019 125.514 273.256 127.292 201.337 151.309C129.276 175.371 79.701 218.898 61.7389 273.867C54.6722 295.493 52.8095 318.069 56.199 340.958H56.2059ZM693.483 363.343C696.81 385.808 694.982 407.964 688.04 429.197C651.353 541.495 481.392 598.111 309.165 555.394C241.702 538.659 181.996 508.924 136.505 469.395C114.643 450.399 96.8085 429.723 83.5023 407.945C70.0514 385.939 61.5391 363.3 58.1858 340.665C54.8325 318.026 56.6884 296.051 63.6241 274.82C100.31 162.52 270.277 105.898 442.497 148.614C509.959 165.35 569.666 195.084 615.157 234.612C637.019 253.61 654.852 274.284 668.158 296.063C681.603 318.071 690.123 340.708 693.477 363.352L693.483 363.343Z" fill="white"/>
<path d="M63.7017 351.814C67.3961 376.755 76.5564 401.451 90.9293 425.227C105.068 448.614 123.9 470.546 146.904 490.405C194.665 531.644 256.648 561.11 326.153 575.61C410.026 593.11 494.588 586.493 564.28 556.974C598.202 542.603 626.753 523.579 649.146 500.415C672.378 476.394 687.929 448.96 695.372 418.867C700.583 397.806 701.588 376.098 698.366 354.34C694.671 329.399 685.511 304.701 671.138 280.925C656.999 257.54 638.167 235.606 615.163 215.748C567.404 174.517 505.42 145.053 435.913 130.542C352.042 113.041 267.471 119.66 197.787 149.179C163.863 163.549 135.314 182.583 112.92 205.739C89.6886 229.759 74.1389 257.201 66.6948 287.287C61.484 308.345 60.4777 330.049 63.7 351.803L63.7017 351.814ZM696.332 354.65C699.5 376.033 698.51 397.374 693.387 418.086C686.049 447.75 670.69 474.831 647.744 498.559C625.532 521.529 597.192 540.406 563.499 554.684C494.132 584.074 409.935 590.653 326.415 573.225C257.236 558.792 195.563 529.483 148.067 488.477C125.254 468.781 106.586 447.047 92.592 423.891C78.4139 400.436 69.3829 376.086 65.7437 351.519C62.5765 330.136 63.5656 308.795 68.6902 288.09C76.0291 258.426 91.3859 231.346 114.34 207.615C136.553 184.645 164.899 165.76 198.585 151.492C267.952 122.102 352.149 115.522 435.668 132.949C504.848 147.384 566.521 176.693 614.017 217.697C636.829 237.393 655.498 259.127 669.492 282.284C683.669 305.74 692.701 330.09 696.341 354.657L696.332 354.65Z" fill="white"/>
<path d="M71.5405 362.103C75.5537 389.199 85.2775 415.82 100.439 441.226C115.328 466.174 135.056 489.29 159.071 509.939C183.304 530.763 211.238 548.496 242.09 562.64C274.001 577.261 308.352 587.717 344.2 593.715C427.961 607.721 511.093 596.023 578.275 560.758C610.979 543.599 638.126 521.768 658.962 495.89C680.573 469.057 694.42 439.004 700.119 406.588C703.641 386.553 703.902 366.102 700.893 345.793C696.879 318.695 687.161 292.074 671.993 266.661C657.105 241.713 637.377 218.597 613.359 197.948C589.126 177.122 561.193 159.393 530.34 145.247C498.433 130.626 464.08 120.17 428.232 114.171C344.469 100.166 261.339 111.864 194.151 147.131C161.448 164.298 134.298 186.119 113.463 211.997C91.853 238.84 78.0057 268.884 72.3073 301.308C68.7834 321.336 68.5232 341.787 71.5319 362.094L71.5405 362.103ZM698.811 346.102C701.772 366.092 701.515 386.235 698.053 405.962C692.436 437.942 678.755 467.603 657.405 494.124C636.746 519.776 609.811 541.433 577.346 558.466C510.509 593.546 427.782 605.185 344.4 591.241C308.719 585.275 274.528 574.869 242.775 560.317C212.103 546.261 184.342 528.639 160.269 507.949C136.452 487.476 116.896 464.568 102.152 439.857C87.1815 414.773 77.5853 388.508 73.6289 361.793C70.6668 341.802 70.9253 321.659 74.3888 301.941C80.0115 269.961 93.6864 240.3 115.041 213.777C135.702 188.116 162.637 166.468 195.101 149.428C261.937 114.347 344.665 102.709 428.045 116.654C463.728 122.619 497.919 133.023 529.672 147.575C560.342 161.631 588.106 179.255 612.178 199.945C635.994 220.418 655.551 243.326 670.293 268.036C685.265 293.121 694.861 319.384 698.819 346.108L698.811 346.102Z" fill="white"/>
<path d="M79.6771 371.623C88.336 430.079 121.083 486.266 171.892 529.841C197.184 551.534 226.187 569.589 258.089 583.497C291.084 597.882 326.391 607.471 363.022 611.989C446.485 622.287 527.916 605.248 592.315 564.013C623.658 543.942 649.264 519.22 668.423 490.528C688.28 460.783 700.298 428.065 704.146 393.268C706.189 374.783 705.836 356.046 703.098 337.561C694.439 279.105 661.692 222.918 610.884 179.342C585.592 157.649 556.589 139.594 524.687 125.688C491.692 111.303 456.383 101.713 419.752 97.1951C336.289 86.8989 254.851 103.938 190.454 145.173C159.109 165.244 133.503 189.965 114.345 218.657C94.4877 248.402 82.4635 281.13 78.6226 315.926C76.5789 334.401 76.9339 353.149 79.6702 371.625L79.6771 371.623ZM700.96 337.879C703.66 356.103 704.004 374.59 701.992 392.813C698.198 427.169 686.317 459.485 666.689 488.887C647.702 517.321 622.31 541.836 591.211 561.745C527.175 602.744 446.178 619.685 363.141 609.441C326.696 604.947 291.572 595.412 258.747 581.102C227.048 567.282 198.232 549.349 173.108 527.798C122.789 484.65 90.371 429.07 81.8156 371.315C79.1171 353.091 78.7656 334.61 80.7834 316.387C84.5795 282.033 96.4589 249.708 116.087 220.313C135.075 191.879 160.467 167.364 191.572 147.446C255.609 106.447 336.605 89.5065 419.642 99.7495C456.085 104.245 491.211 113.779 524.035 128.09C555.735 141.91 584.551 159.844 609.674 181.394C659.987 224.543 692.412 280.12 700.968 337.885L700.96 337.879Z" fill="white"/>
<path d="M88.0279 380.123C97.4863 443.987 132.041 504.332 185.319 550.038C211.743 572.703 241.862 591.117 274.84 604.773C308.967 618.899 345.215 627.51 382.596 630.377C465.567 636.735 545.029 614.114 606.354 566.684C636.201 543.599 660.124 515.88 677.461 484.297C695.427 451.562 705.496 416.094 707.382 378.867C708.209 362.527 707.419 346.034 705.019 329.838C695.559 265.966 661.006 205.62 607.726 159.913C581.303 137.248 551.182 118.835 518.204 105.18C484.079 91.054 447.829 82.4434 410.451 79.5756C327.479 73.2175 248.017 95.8389 186.692 143.267C156.845 166.354 132.923 194.078 115.585 225.663C97.6207 258.4 87.5522 293.874 85.6568 331.094C84.8297 347.427 85.6275 363.927 88.0279 380.123ZM702.827 330.162C705.196 346.157 705.986 362.449 705.162 378.581C703.294 415.355 693.338 450.414 675.572 482.787C658.394 514.081 634.674 541.562 605.067 564.463C544.126 611.601 465.131 634.078 382.627 627.751C345.451 624.902 309.407 616.338 275.481 602.298C242.722 588.735 212.801 570.451 186.57 547.94C133.795 502.667 99.5816 442.951 90.2266 379.798C87.8573 363.803 87.0681 347.52 87.8917 331.387C89.7596 294.605 99.716 259.544 117.482 227.173C134.658 195.868 158.379 168.389 187.985 145.488C248.927 98.3502 327.922 75.8729 410.425 82.1922C447.598 85.0406 483.645 93.6064 517.569 107.646C550.329 121.208 580.248 139.495 606.482 162.005C659.256 207.277 693.471 267 702.826 330.155L702.827 330.162Z" fill="white"/>
<path d="M96.502 387.338C106.865 457.309 143.391 522.365 199.343 570.513C255.746 619.052 328.051 646.878 402.934 648.884C444.508 649.999 484.804 643.313 522.71 629.036C559.329 615.241 592.188 594.961 620.368 568.761C648.568 542.55 670.661 511.733 686.045 477.168C701.979 441.354 709.973 403.074 709.799 363.381C709.742 349.858 708.705 336.24 706.728 322.894C696.364 252.924 659.839 187.868 603.886 139.721C547.479 91.1827 475.181 63.3469 400.301 61.3487C358.73 60.2336 318.425 66.9193 280.526 81.1956C243.908 94.9914 211.049 115.27 182.868 141.47C154.669 167.683 132.576 198.5 117.192 233.064C101.258 268.878 93.2642 307.158 93.4383 346.851C93.4934 360.364 94.5324 373.991 96.5071 387.328L96.502 387.338ZM704.474 323.228C706.429 336.428 707.45 349.891 707.506 363.264C707.678 402.516 699.771 440.392 684.004 475.82C668.762 510.066 646.853 540.615 618.895 566.608C590.916 592.614 558.288 612.749 521.916 626.457C484.248 640.651 444.197 647.29 402.87 646.18C328.464 644.195 256.642 616.556 200.627 568.357C145.19 520.659 109.012 456.251 98.7559 387.004C96.8019 373.813 95.78 360.343 95.7249 346.979C95.5526 307.718 103.46 269.849 119.225 234.412C134.467 200.159 156.376 169.618 184.335 143.626C212.313 117.62 244.94 97.4762 281.314 83.775C318.982 69.5829 359.033 62.9429 400.358 64.0447C474.757 66.0308 546.579 93.6706 602.596 141.875C658.035 189.584 694.212 253.992 704.467 323.228H704.474Z" fill="white"/>
<path d="M104.989 392.93C116.379 469.82 155.067 540.223 213.919 591.179C273.108 642.417 347.726 669.501 424.018 667.447C465.128 666.341 504.55 657.007 541.198 639.72C576.595 623.017 607.929 599.62 634.315 570.191C660.712 540.742 680.834 506.739 694.12 469.112C707.886 430.145 713.675 388.986 711.331 346.786C710.777 336.857 709.764 326.847 708.311 317.042C696.923 240.159 658.233 169.75 599.373 118.795C540.183 67.5485 465.567 40.464 389.274 42.5196C348.163 43.6248 308.743 52.9589 272.093 70.2458C236.694 86.9474 205.364 110.345 178.976 139.775C152.579 169.223 132.457 203.226 119.172 240.851C105.406 279.822 99.6175 320.98 101.963 363.188C102.516 373.117 103.527 383.118 104.982 392.932L104.989 392.93ZM705.996 317.385C707.434 327.092 708.439 336.996 708.985 346.825C711.309 388.605 705.571 429.356 691.944 467.939C678.776 505.221 658.827 538.931 632.652 568.131C606.464 597.341 575.372 620.562 540.228 637.142C503.837 654.315 464.676 663.579 423.846 664.683C348.077 666.729 273.994 639.839 215.246 588.977C156.916 538.478 118.577 468.738 107.299 392.596C105.86 382.889 104.856 372.986 104.31 363.156C101.985 321.378 107.721 280.618 121.35 242.035C134.517 204.753 154.465 171.041 180.642 141.842C206.829 112.633 237.923 89.4119 273.065 72.831C309.456 55.6576 348.615 46.3953 389.445 45.2904C465.209 43.2464 539.292 70.1352 598.047 120.997C656.378 171.496 694.717 241.242 705.996 317.385Z" fill="white"/>
<path d="M113.344 396.493C125.896 481.235 166.974 557.749 229.011 611.96C291.232 666.327 368.24 692.633 445.856 686.038C486.388 682.588 524.806 670.492 560.037 650.069C594.07 630.341 623.72 603.715 648.154 570.935C672.593 538.15 690.591 500.86 701.648 460.102C713.094 417.898 716.551 373.798 711.93 329.039C711.365 323.573 710.674 318.057 709.871 312.634C697.319 227.893 656.24 151.371 594.202 97.1595C531.981 42.7921 454.973 16.4863 377.357 23.0818C336.827 26.5305 298.408 38.629 263.176 59.0508C229.144 78.7791 199.495 105.406 175.059 138.184C150.621 170.97 132.623 208.261 121.566 249.017C110.12 291.229 106.662 335.323 111.284 380.08C111.849 385.546 112.54 391.062 113.343 396.485L113.344 396.493ZM707.494 312.986C708.29 318.362 708.974 323.828 709.538 329.244C714.119 373.593 710.693 417.288 699.352 459.111C688.397 499.519 670.548 536.487 646.312 568.995C622.07 601.512 592.653 627.92 558.886 647.502C523.918 667.768 485.788 679.781 445.561 683.204C368.542 689.752 292.116 663.651 230.386 609.709C168.882 555.968 128.162 480.125 115.722 396.149C114.928 390.783 114.242 385.31 113.679 379.892C109.095 335.537 112.522 291.839 123.862 250.018C134.817 209.609 152.667 172.638 176.901 140.133C201.146 107.616 230.56 81.199 264.329 61.6264C299.295 41.36 337.425 29.3462 377.652 25.9255C454.672 19.3767 531.097 45.4776 592.829 99.4184C654.334 153.16 695.054 229.003 707.494 312.986Z" fill="white"/>
<path d="M121.404 397.555C128.419 444.905 143.024 489.681 164.815 530.649C185.867 570.22 212.698 604.574 244.569 632.781C276.439 660.98 311.745 681.596 349.494 694.061C388.585 706.963 428.599 710.514 468.44 704.612C508.279 698.712 545.546 683.712 579.211 660.036C611.734 637.161 639.538 607.195 661.865 570.969C684.192 534.742 699.912 494.077 708.589 450.104C717.568 404.578 718.566 357.49 711.552 310.139C704.539 262.789 689.932 218.004 668.141 177.036C647.089 137.465 620.256 103.103 588.385 74.9047C556.515 46.7058 521.211 26.0889 483.46 13.6231C444.371 0.723418 404.356 -2.82731 364.523 3.07277C324.691 8.97302 287.417 23.9722 253.745 47.6499C221.222 70.5247 193.416 100.49 171.089 136.716C148.764 172.943 133.043 213.608 124.367 257.583C115.386 303.107 114.389 350.196 121.404 397.555ZM709.121 310.499C716.077 357.459 715.084 404.165 706.181 449.303C697.575 492.909 681.988 533.238 659.842 569.172C637.695 605.105 610.119 634.821 577.862 657.506C544.47 680.993 507.505 695.864 468.002 701.715C428.499 707.566 388.809 704.042 350.044 691.253C312.603 678.891 277.59 658.445 245.979 630.475C214.373 602.503 187.759 568.435 166.879 529.186C145.266 488.56 130.784 444.156 123.828 397.196C116.872 350.237 117.864 303.531 126.768 258.383C135.373 214.778 150.961 174.448 173.107 138.515C195.253 102.581 222.828 72.8665 255.086 50.1807C288.477 26.6943 325.442 11.8241 364.945 5.97266C404.449 0.121179 444.138 3.64554 482.904 16.4351C520.346 28.7967 555.357 49.2405 586.97 77.2111C618.582 105.182 645.191 139.261 666.068 178.499C687.683 219.127 702.165 263.54 709.121 310.499Z" fill="white"/>
</svg>
