<svg width="130" height="81" viewBox="0 0 130 81" fill="none" xmlns="http://www.w3.org/2000/svg">
<path fill-rule="evenodd" clip-rule="evenodd" d="M8.61784 0.053838C12.2631 0.053838 13.7321 0.26919 14.3306 0.861408C14.9291 1.45363 15.1467 2.85341 15.1467 5.70683C15.1467 8.66791 14.9291 9.96003 14.2762 10.5522C13.6777 11.1445 12.1543 11.3598 8.56344 11.3598C4.10206 11.3598 3.72121 11.306 3.72121 10.2831C3.72121 9.31397 4.10206 9.2063 12.4263 9.2063V2.20736H8.07377C4.10206 2.20736 3.72121 2.09968 3.72121 1.1306C3.72121 0.107676 4.10206 0.053838 8.61784 0.053838ZM22.274 0L34.4612 0.323028L34.7332 32.3566C34.8965 54.5379 35.1685 64.7132 35.6037 65.467C35.9302 66.0592 36.9095 67.0283 37.78 67.6205C39.249 68.6434 40.3372 68.6973 74.9945 68.9665V80.8108H22.2196L22.274 0ZM37.9977 0.053838H54.5918L58.2915 3.66098C60.3046 5.65299 61.9368 7.48348 61.9368 7.69883C61.9368 7.91418 59.2708 8.12953 49.9672 8.12953V22.1274H61.9368L62.1 26.2191C62.1544 28.4265 62.1 30.3646 61.9912 30.5261C61.8824 30.6338 59.1076 30.7415 49.9672 30.7415V45.2777L55.5711 45.2239C58.6179 45.2239 61.3383 45.4393 61.5559 45.6546C61.7735 45.87 60.1957 47.8081 54.0477 53.8918H37.9977V0.053838ZM76.3546 0.053838L103.177 26.5421C117.922 41.1322 129.946 53.2458 129.946 53.4611C129.946 53.6765 125.974 53.8918 112.263 53.838L103.83 45.5469C96.1588 37.9558 95.2339 37.202 93.4929 37.202C91.8063 37.202 90.8269 37.9558 74.7224 53.838L66.4526 53.8918C61.8824 53.8918 58.1283 53.6765 58.1283 53.4611C58.1283 53.2458 63.6778 47.5928 70.3699 40.9707C82.285 29.1802 82.6115 28.8033 82.6115 26.7036C82.6115 24.604 82.2306 24.1733 70.6419 12.7058C64.0586 6.19137 58.6723 0.646056 58.6723 0.430704C58.6723 0.215352 62.6441 0.053838 76.3546 0.053838ZM111.012 0.053838H118.847C123.199 0.053838 126.681 0.215352 126.681 0.430704C126.681 0.646056 125.919 1.66898 124.995 2.74574C124.07 3.76866 121.077 6.89126 118.302 9.74467C115.582 12.5442 111.447 16.9051 104.973 24.0117L100.838 19.9739C98.6071 17.7127 96.7029 15.6669 96.7029 15.3438C96.7029 15.0208 99.9129 11.4137 103.83 7.3758L111.012 0.053838ZM78.2589 57.1221H85.8759V63.3135C85.8759 66.7053 86.1479 70.0971 86.42 70.8508C86.7464 71.6045 87.8345 72.5736 88.8683 73.0043C89.902 73.435 91.5342 73.8119 94.0369 73.8119V57.1221H102.198V80.8108L94.0913 80.7031C86.0391 80.5416 85.9303 80.5416 83.6452 78.9265C82.1762 77.9036 80.7616 76.2346 79.7823 74.3503C78.3133 71.5507 78.2589 71.0661 78.2589 64.2825V57.1221ZM115.637 57.1221C124.342 57.1221 125.484 57.2298 127.062 58.1989C128.041 58.7911 129.075 59.7063 129.347 60.1909C129.619 60.7292 129.891 62.7212 129.946 64.6594C130 66.5437 130 68.8049 130 69.6125C129.946 70.5278 129.238 71.8199 128.096 73.0043C126.3 74.8348 126.137 74.8886 117.432 74.8886V72.0352C117.432 70.4739 117.704 68.9126 118.085 68.5358C118.411 68.1589 119.663 67.8897 120.805 67.8897C122.818 67.8897 122.873 67.8359 122.873 64.121H114.168V80.8108L105.734 80.5416L105.898 69.2356C105.952 62.9904 106.006 57.7143 106.006 57.499C106.006 57.2836 110.359 57.1221 115.637 57.1221ZM13.7865 75.9654C14.9291 75.9654 15.1467 76.1807 15.1467 77.419C15.1467 78.2266 14.7114 79.3572 14.1674 79.8956C13.3513 80.7031 12.2631 80.8108 6.55037 80.8108C-0.0328816 80.8108 -0.0872882 80.757 0.0215259 79.5725C0.184747 78.4419 0.402375 78.3881 6.27834 78.2266C11.9911 78.1189 12.4263 78.0112 12.4263 77.0422C12.4263 76.2346 12.8072 75.9654 13.7865 75.9654ZM5.08138 12.4366C6.38715 12.4366 6.44156 12.5981 6.44156 18.3587L8.72666 18.4126C10.0324 18.4664 11.9367 18.5203 12.9704 18.5741C14.4938 18.6279 14.8747 18.8433 14.9835 19.8124C15.1467 20.9968 14.9835 21.0506 10.2501 21.0506C6.60478 21.0506 5.13579 20.8353 4.53731 20.2431C3.99324 19.6509 3.72121 18.3049 3.72121 15.936C3.72121 12.5442 3.77561 12.4366 5.08138 12.4366ZM13.7321 22.6658C14.8747 22.6658 15.1467 22.935 15.1467 24.0117C15.1467 25.0885 14.8747 25.3039 13.8953 25.1962C13.1336 25.1423 12.644 24.6578 12.5352 23.8502C12.3719 22.8811 12.5896 22.6658 13.7321 22.6658ZM9.70598 25.8961C11.5014 25.8961 13.188 26.1653 13.8953 26.7036C14.9835 27.4035 15.1467 27.9419 15.1467 35.0485H17.323C19.1184 35.0485 19.4993 35.21 19.4993 36.1253C19.4993 36.7713 19.064 37.2559 18.2479 37.4174C17.595 37.5789 14.113 37.6327 3.99324 37.4712L3.83002 33.4334C3.72121 31.1722 3.83002 28.8033 4.04765 28.1573C4.26528 27.4574 4.97257 26.7036 5.57105 26.4344C6.22393 26.1653 8.07377 25.9499 9.70598 25.8961ZM6.44156 35.0485H12.4263V28.588H6.44156V35.0485ZM8.72666 38.2788C12.2631 38.2788 13.1336 38.4403 14.0585 39.3556C14.9291 40.217 15.1467 41.1322 15.1467 44.4702C15.1467 48.0235 14.9835 48.5619 13.8953 49.3156C13.0792 49.854 11.2838 50.1232 8.18259 50.1232C3.77561 50.1232 3.72121 50.0693 3.72121 48.7772C3.72121 47.4313 3.77561 47.4313 12.4263 47.4313V40.9707H8.07377C4.26528 40.9707 3.72121 40.8092 3.61239 39.9478C3.55799 39.4094 3.72121 38.8172 3.99324 38.6018C4.21087 38.4403 6.33275 38.2788 8.72666 38.2788ZM3.99324 51.1999C4.15646 51.1999 5.29901 52.0075 6.55037 53.0304C7.85614 54.0533 9.0531 54.9147 9.27073 54.9147C9.54276 54.9686 10.7397 54.1072 11.9911 53.0842C13.2969 52.0613 14.4938 51.1999 14.7114 51.1999C14.9835 51.1999 15.1467 51.7921 15.1467 52.5459C15.1467 53.3534 14.4394 54.484 11.6102 57.1221L13.3513 58.5757C14.4394 59.4371 15.1467 60.5677 15.1467 61.2676C15.1467 61.9675 14.8747 62.5059 14.6026 62.5059C14.2762 62.5059 12.916 61.5906 9.10751 58.468L7.09444 60.4601C6.0063 61.5906 4.75494 62.5059 4.37409 62.5059C4.04765 62.5059 3.72121 61.8598 3.72121 61.1599C3.72121 60.2447 4.31968 59.3295 7.25767 57.0683L5.46223 55.4531C4.37409 54.484 3.72121 53.3534 3.72121 52.5459C3.72121 51.7921 3.83002 51.1999 3.99324 51.1999ZM37.9977 57.1221H74.9945V65.7362L57.6386 65.5747C41.1533 65.467 40.2283 65.4131 39.1402 64.3902C38.1609 63.5288 37.9432 62.6674 37.9977 60.1909V57.1221ZM10.7941 63.5827L10.9029 67.9974C11.0118 70.9585 11.2838 72.4659 11.719 72.5736C12.2087 72.6813 12.4263 71.5507 12.5352 68.3204C12.644 64.121 12.7528 63.8518 13.8953 63.7442C15.0923 63.5827 15.1467 63.7442 15.1467 68.1589C15.1467 70.6893 14.8747 73.2197 14.6026 73.8119C14.113 74.781 13.5145 74.8886 9.43395 74.8886C5.35342 74.8886 4.70053 74.781 4.26528 73.8119C3.93883 73.2197 3.6668 71.0661 3.61239 69.0203C3.55799 65.6285 3.6668 65.1978 4.86375 64.4441C5.57105 63.9595 7.20326 63.5827 10.7941 63.5827ZM7.25767 72.1967C7.85614 72.1967 8.07377 71.4968 8.07377 69.2356C8.07377 66.9744 7.85614 66.2746 7.25767 66.2746C6.60478 66.2746 6.44156 66.9744 6.44156 69.2356C6.44156 71.4968 6.60478 72.1967 7.25767 72.1967Z" fill="white"/>
</svg>
