<svg width="30" height="28" viewBox="0 0 30 28" fill="none" xmlns="http://www.w3.org/2000/svg">
<path fill-rule="evenodd" clip-rule="evenodd" d="M8.96484 3C9.39844 3 9.99609 3.03444 10.2832 3.07461C10.5703 3.12052 11.0332 3.21235 11.3086 3.28122C11.584 3.3501 12 3.4821 12.2344 3.57393C12.4629 3.66576 12.8496 3.83219 13.0781 3.94698C13.3125 4.06177 13.7285 4.30855 14.0039 4.49221C14.2793 4.67587 14.7012 4.99727 14.9414 5.20388C15.1816 5.41049 15.5449 5.76633 15.75 5.9959C15.9551 6.21973 16.2598 6.61574 16.4297 6.86827C16.6055 7.1208 16.8574 7.5455 16.998 7.81525C17.1328 8.085 17.332 8.5384 17.625 9.33616L28.5059 9.39355L28.8281 9.53703C29.0039 9.62312 29.2676 9.80104 29.4141 9.93878C29.5547 10.0823 29.7422 10.3577 30 10.9145L29.9707 20.5851L29.8242 20.9008C29.7363 21.073 29.5547 21.3312 29.4141 21.4747C29.2676 21.6125 29.0039 21.7904 28.5059 22.02L20.5078 22.0486L20.4902 22.7259C20.4785 23.2137 20.4434 23.449 20.373 23.5868C20.3203 23.6843 20.1855 23.8221 20.0859 23.8852C19.9805 23.9483 19.793 24 19.6758 24C19.5527 24 19.3945 23.9713 19.3242 23.9369C19.248 23.9024 18.7676 23.4662 17.3145 22.0544L13.5059 22.02L13.1836 21.8707C13.0078 21.7904 12.75 21.6067 12.6094 21.469C12.4746 21.3312 12.3105 21.1131 12.2461 20.9869C12.1816 20.8606 12.1055 20.6138 12.0703 20.4417C12.0352 20.2695 12 20.1203 11.9941 20.1088C11.9883 20.103 11.7598 20.1547 10.9863 20.3613L10.957 21.2796C10.9336 22.02 10.9102 22.2266 10.8281 22.3528C10.7695 22.4389 10.623 22.5767 10.5059 22.6628C10.3301 22.7833 10.2188 22.8177 9.99023 22.8177C9.83203 22.812 9.63281 22.7775 9.55078 22.7374C9.46875 22.6972 8.87695 22.152 7.06055 20.39L6.5332 20.2408C6.24609 20.1604 5.74219 19.9825 5.41992 19.8448C5.09766 19.7128 4.56445 19.4315 4.23047 19.2307C3.89648 19.0298 3.39844 18.6682 3.11719 18.4272C2.83594 18.1919 2.46094 17.8303 2.2793 17.6237C2.09766 17.4228 1.81055 17.0612 1.63477 16.8259C1.45898 16.5906 1.17188 16.1142 0.990234 15.7641C0.814453 15.414 0.585938 14.886 0.486328 14.5876C0.380859 14.2892 0.263672 13.8472 0.210938 13.6119C0.164062 13.3766 0.09375 13.0437 0.0644531 12.8773C0.0292969 12.7166 0 12.2288 0 11.804C0 11.2244 0.0351562 10.8398 0.146484 10.2659C0.222656 9.85269 0.369141 9.27303 0.46875 8.9918C0.568359 8.71058 0.761719 8.23996 0.902344 7.95873C1.03711 7.67751 1.28906 7.23558 1.45898 6.98306C1.62891 6.73053 1.95703 6.30582 2.19141 6.04181C2.41992 5.77781 2.80664 5.38754 3.05273 5.18092C3.29883 4.97431 3.69141 4.67013 3.93164 4.50943C4.17188 4.34299 4.62891 4.08472 4.95117 3.92402C5.27344 3.76906 5.73633 3.56819 5.97656 3.4821C6.2168 3.40175 6.58594 3.2927 6.79688 3.24105C7.00781 3.19514 7.40039 3.12052 7.67578 3.08035C7.95117 3.04017 8.53125 3.00574 8.96484 3V3ZM6.91406 4.17081C6.70312 4.22247 6.29883 4.36021 6.00586 4.46925C5.71875 4.58404 5.25586 4.80213 4.98047 4.95709C4.70508 5.11205 4.28906 5.38754 4.04883 5.56546C3.81445 5.74337 3.41602 6.09921 3.16992 6.35174C2.92383 6.61 2.56055 7.04619 2.36719 7.32741C2.16797 7.61438 1.91602 8.0276 1.80469 8.2457C1.6875 8.46379 1.52344 8.84258 1.44141 9.07789C1.35352 9.3132 1.23047 9.70347 1.17188 9.93878C1.11328 10.1741 1.03711 10.6045 1.00195 10.8858C0.966797 11.167 0.9375 11.5917 0.9375 11.8213C0.9375 12.0451 0.966797 12.4354 0.996094 12.6764C1.03125 12.9232 1.0957 13.2905 1.14258 13.4971C1.18945 13.7037 1.30664 14.1055 1.40625 14.3867C1.51172 14.6679 1.72266 15.15 1.88086 15.4485C2.03906 15.7469 2.33789 16.2118 2.54297 16.4816C2.74805 16.7513 3.16406 17.199 3.46289 17.4802C3.76758 17.7614 4.20117 18.1115 4.42383 18.2607C4.65234 18.4042 4.98047 18.6051 5.15625 18.7084C5.33203 18.806 5.67773 18.9609 5.91797 19.0585C6.1582 19.1503 6.63281 19.3053 6.97266 19.4028L7.58789 19.5808L10.0195 21.9626C10.0195 19.9136 10.0254 19.8275 10.1367 19.707C10.2012 19.6382 10.3652 19.5521 10.5059 19.5234C10.6406 19.4889 10.9922 19.3971 11.2793 19.3168C11.5723 19.2364 12.082 19.0413 12.4219 18.8863C12.7617 18.7256 13.2598 18.4501 13.5352 18.2722C13.8047 18.0943 14.2441 17.7499 14.502 17.5089C14.7598 17.2678 15.123 16.8833 15.3047 16.648C15.4863 16.4127 15.7734 16.0052 15.9375 15.7354C16.1016 15.4657 16.3359 14.9893 16.4648 14.6737C16.5879 14.358 16.7461 13.8759 16.8105 13.5947C16.8809 13.3192 16.957 12.8027 16.9922 12.4526C17.0273 12.0221 17.0273 11.5802 16.9922 11.144C16.957 10.7825 16.875 10.2487 16.8047 9.96748C16.7402 9.68625 16.6113 9.26155 16.5176 9.03198C16.4238 8.80814 16.2539 8.43509 16.1426 8.217C16.0312 7.99891 15.8379 7.66603 15.7207 7.48237C15.6035 7.30445 15.3574 6.97158 15.1758 6.75348C14.9941 6.53539 14.6602 6.19104 14.4375 5.99016C14.2148 5.79503 13.8105 5.47937 13.5352 5.29571C13.2598 5.11205 12.8262 4.85379 12.5684 4.72752C12.3105 4.60126 11.8652 4.4176 11.5723 4.32003C11.2852 4.2282 10.8457 4.10768 10.6055 4.05603C10.3242 3.99289 9.80273 3.95272 9.16992 3.94124C8.50195 3.92402 8.02734 3.94124 7.73438 3.99289C7.49414 4.03881 7.125 4.11342 6.91406 4.17081ZM17.9121 10.8456C17.9355 11.1498 17.9531 11.6835 17.9473 12.0336C17.9414 12.3837 17.9004 12.9117 17.8477 13.2102C17.8008 13.5086 17.6895 13.9792 17.6074 14.2605C17.5254 14.5359 17.3613 14.9836 17.2383 15.2648C17.1152 15.5403 16.8926 15.9708 16.7402 16.2233C16.5879 16.4758 16.3242 16.8603 16.1543 17.0842C15.9844 17.3023 15.627 17.704 15.3516 17.9795C15.0762 18.2492 14.6543 18.6166 14.4141 18.7945C14.1738 18.9724 13.752 19.2421 13.4766 19.3971C12.9961 19.6668 12.9785 19.6841 12.9609 19.9022C12.9492 20.0227 12.9668 20.2293 13.002 20.3556C13.0312 20.4818 13.1191 20.6597 13.1953 20.7516C13.2715 20.8434 13.4355 20.9697 13.5645 21.0271C13.7754 21.1189 13.998 21.1304 15.7031 21.1304C17.373 21.1304 17.625 21.1418 17.7539 21.2222C17.8359 21.2738 18.2637 21.6699 18.7031 22.1003L19.5 22.8808C19.541 21.4231 19.5469 21.4058 19.7051 21.2681L19.8633 21.1304C27.9258 21.1304 28.2305 21.1189 28.4473 21.0271C28.5762 20.9697 28.7402 20.8434 28.8164 20.7516C28.8926 20.6597 28.9805 20.4933 29.0098 20.3843C29.0449 20.258 29.0625 18.5075 29.0508 15.5518L29.0332 10.9259C28.7637 10.5931 28.5879 10.4496 28.4766 10.3922C28.2832 10.2889 28.0488 10.2831 23.0684 10.2831H17.8652L17.9121 10.8456ZM8.93555 7.41924C9.20508 7.41924 9.53906 7.45368 9.72656 7.51107C9.90234 7.55698 10.1953 7.67177 10.3711 7.75786C10.5469 7.84395 10.8574 8.085 11.0625 8.28587C11.3086 8.52692 11.5078 8.78519 11.6367 9.05493C11.748 9.27303 11.8594 9.59442 11.8945 9.77234C11.9297 9.94452 11.9531 10.2143 11.9531 10.375C11.9531 10.5299 11.9121 10.8112 11.8594 11.0063C11.8125 11.1957 11.6836 11.4999 11.584 11.695C11.4785 11.8844 11.2324 12.1886 11.0391 12.3837C10.8398 12.5731 10.5645 12.7797 10.4238 12.8543C10.2832 12.9232 10.0371 13.0322 9.88477 13.0954C9.67969 13.1815 9.58594 13.2618 9.52148 13.4168C9.47461 13.5258 9.43359 13.6865 9.43359 13.7726C9.43359 13.8587 9.36914 13.9907 9.29883 14.0596C9.2168 14.1399 9.09961 14.1916 8.99414 14.1858C8.89453 14.1858 8.77148 14.1514 8.71875 14.117C8.66602 14.0768 8.5957 13.9678 8.55469 13.8759C8.51953 13.7726 8.50781 13.5947 8.53125 13.4455C8.54883 13.302 8.63672 13.0609 8.72461 12.906C8.80664 12.751 8.98242 12.5502 9.11133 12.4583C9.24023 12.3665 9.50391 12.2345 9.69727 12.1656C9.91992 12.0853 10.1602 11.9303 10.3594 11.7524C10.541 11.586 10.7402 11.3277 10.8281 11.1498C10.957 10.8858 10.9805 10.7538 10.9863 10.3405C10.9863 9.91008 10.9629 9.81252 10.7988 9.47964C10.6816 9.24433 10.5117 9.0205 10.3301 8.8598C10.1777 8.72779 9.93164 8.55562 9.78516 8.48674C9.57422 8.38918 9.41602 8.36622 8.99414 8.36622C8.54883 8.36622 8.41406 8.38918 8.14453 8.5097C7.96875 8.59005 7.71094 8.76223 7.57031 8.89423C7.43555 9.03198 7.25977 9.27303 7.17773 9.43946C7.0957 9.6059 7.01953 9.824 7.00195 9.9273C6.98438 10.0306 6.96094 10.2028 6.94336 10.3176C6.92578 10.4266 6.86133 10.5701 6.79688 10.6332C6.72656 10.6964 6.60352 10.7423 6.48633 10.7423C6.36914 10.7423 6.24609 10.6906 6.16406 10.616C6.05859 10.5127 6.0293 10.4266 6.0293 10.1741C6.0293 9.99617 6.08203 9.68625 6.14648 9.48538C6.21094 9.27876 6.36328 8.95737 6.49219 8.76797C6.61523 8.57283 6.83203 8.31457 6.97852 8.1883C7.11914 8.06204 7.36523 7.87838 7.5293 7.78655C7.6875 7.69473 7.96875 7.5742 8.14453 7.52255C8.33203 7.46515 8.66016 7.41924 8.93555 7.41924ZM26.0039 12.8142C26.127 12.8142 26.2441 12.8601 26.3379 12.9576C26.4316 13.0495 26.4844 13.1643 26.4844 13.2848C26.4844 13.4512 26.2383 13.7095 23.8594 16.0396C21.4102 18.4386 21.2227 18.6108 21.0352 18.6108C20.8477 18.6108 20.7188 18.5018 19.4355 17.2449C18.2344 16.0683 18.0469 15.856 18.0469 15.7125C18.0469 15.6092 18.1055 15.4829 18.1758 15.4083C18.2617 15.3241 18.373 15.2801 18.5098 15.2763C18.7031 15.2763 18.8086 15.3624 21.0059 17.5146L23.4082 15.1615C25.582 13.038 25.834 12.8142 26.0039 12.8142ZM9.00586 15.282C9.12305 15.282 9.24609 15.328 9.31641 15.3968C9.38672 15.4657 9.43359 15.5862 9.43359 15.7125C9.43359 15.833 9.38672 15.9535 9.31641 16.0281C9.25195 16.0913 9.12305 16.1429 9.02344 16.1429C8.92383 16.1429 8.80078 16.12 8.74805 16.097C8.69531 16.0741 8.61914 15.9765 8.57812 15.8847C8.53125 15.7641 8.52539 15.6608 8.56055 15.569C8.5957 15.4887 8.66016 15.3911 8.71875 15.3509C8.77148 15.3107 8.90039 15.282 9.00586 15.282Z" fill="#0429AE"/>
</svg>
