<svg width="28" height="28" viewBox="0 0 28 28" fill="none" xmlns="http://www.w3.org/2000/svg">
<path fill-rule="evenodd" clip-rule="evenodd" d="M19.7343 1.00152C25.3346 0.995964 25.8516 1.00152 26.102 1.09039C26.2762 1.15149 26.4612 1.27368 26.619 1.43476C26.7605 1.58472 26.8966 1.78468 26.9347 1.91243C26.9837 2.07906 27 3.22881 27 6.38368C27 10.3939 26.9946 10.6439 26.8966 10.8549C26.8422 10.9771 26.7388 11.1438 26.668 11.2215C26.5973 11.2993 26.4285 11.4215 26.0476 11.6325L18.3737 11.6659L17.2308 12.6323C16.3274 13.3988 16.0552 13.6043 15.9246 13.6043C15.8375 13.6099 15.7015 13.5599 15.6253 13.4988C15.4892 13.3933 15.4892 13.3766 15.462 11.6603L14.4932 11.6436C13.7204 11.6325 13.4864 11.6103 13.3122 11.5326C13.1925 11.477 13.0238 11.3659 12.9421 11.2826C12.8551 11.1993 12.7299 11.0327 12.5503 10.6883V1.96797L12.7027 1.70692C12.7843 1.55695 12.9258 1.38477 13.0183 1.31812C13.1109 1.24591 13.2905 1.15149 13.4102 1.1015C13.617 1.01818 14.2102 1.00707 19.7343 1.00152ZM13.4592 2.10128C13.4102 2.19015 13.3939 3.23437 13.3939 6.38368V10.5494C13.6823 10.7661 13.7694 10.7772 14.8742 10.7716H16.0607C16.3274 11.0438 16.3328 11.0827 16.3328 11.6603V12.2713C17.1818 11.5603 17.59 11.2215 17.7805 11.066L18.1288 10.7716C24.1209 10.7716 25.8952 10.755 25.9442 10.7327C25.9931 10.705 26.0693 10.6216 26.1074 10.5383C26.1673 10.4106 26.1836 9.62742 26.1836 6.30037V2.21792L25.8571 1.88466C16.4471 1.89021 13.6986 1.91243 13.6388 1.9402C13.5735 1.96797 13.4973 2.04018 13.4592 2.10128ZM8.49567 8.40546C8.98549 8.41657 9.1923 8.4499 9.4481 8.54988C9.6277 8.62208 9.88349 8.75539 10.0196 8.84981C10.1556 8.94423 10.357 9.12197 10.4713 9.24417C10.5856 9.36636 10.7652 9.64408 10.8631 9.85515C10.9665 10.0662 11.0917 10.3939 11.1407 10.5772C11.1842 10.7605 11.2387 11.2326 11.255 11.6325C11.2768 12.1324 11.255 12.5546 11.1951 13.0211C11.1461 13.3877 11.0482 13.9487 10.9774 14.2709C10.9067 14.593 10.8305 14.9207 10.7815 15.1595L17.3396 15.1873L17.6662 15.3428C17.8458 15.4262 18.0853 15.5928 18.1996 15.7039C18.3138 15.815 18.4608 16.0094 18.5261 16.1316C18.6241 16.3149 18.6458 16.4482 18.6458 16.8814C18.6458 17.3424 18.6295 17.4424 18.5043 17.6868C18.4227 17.8423 18.254 18.0645 18.1234 18.1867C17.9927 18.3089 17.7859 18.4533 17.4485 18.6144L17.5846 18.8754C17.7043 19.0976 17.7206 19.2031 17.7206 19.6586C17.7206 20.0974 17.6989 20.2251 17.5954 20.4251C17.5301 20.5528 17.3832 20.7583 17.2743 20.8861C17.16 21.0083 16.9478 21.1749 16.5233 21.386L16.6593 21.6748C16.7736 21.9136 16.7954 22.0469 16.7954 22.4357C16.7954 22.8246 16.7736 22.9579 16.6593 23.1856C16.5886 23.3411 16.4308 23.5633 16.3056 23.6855C16.1859 23.8132 15.9845 23.9632 15.8593 24.0187C15.7341 24.0798 15.6362 24.1409 15.6416 24.1576C15.6525 24.1743 15.7178 24.3131 15.7886 24.4631C15.8974 24.6853 15.9246 24.8241 15.9246 25.1851C15.9192 25.5295 15.892 25.685 15.7994 25.8794C15.7341 26.0183 15.5926 26.2405 15.4783 26.3738C15.3532 26.5182 15.1355 26.6793 14.564 26.9625L11.7883 26.9903C10.2645 27.007 8.68071 27.0014 8.27797 26.9792C7.87523 26.957 7.39629 26.907 7.21669 26.8737C7.03709 26.8403 6.77041 26.7626 6.62346 26.6959C6.47652 26.6293 6.2697 26.4682 6.16085 26.346C6.05201 26.2183 5.9105 26.0516 5.84519 25.9683C5.73634 25.8406 5.68192 25.8239 5.38258 25.8239C5.05059 25.8295 5.03427 25.835 4.86555 26.0461C4.75126 26.1849 4.60976 26.2905 4.48458 26.3293C4.34852 26.3627 3.61379 26.3793 2.41645 26.3682C0.631324 26.3516 0.549688 26.346 0.402741 26.2349C0.321105 26.1738 0.195928 26.035 0 25.7406V15.5761L0.125176 15.3873C0.195928 15.2817 0.321105 15.1429 0.402741 15.0818C0.549688 14.9707 0.625882 14.9651 2.40556 14.954C4.14715 14.9374 4.26144 14.9429 4.49546 15.0485C4.64241 15.1151 4.78936 15.2373 4.98528 15.5428L6.01391 13.9487C6.57448 13.0711 7.09151 12.2546 7.15682 12.1324C7.26567 11.9269 7.27111 11.8103 7.29833 10.2884C7.3201 8.94979 7.34187 8.64985 7.40718 8.57765C7.45072 8.52766 7.57589 8.46656 7.6793 8.43879C7.78271 8.41102 8.15279 8.39435 8.49567 8.40546ZM8.18 10.5272C8.17456 11.6714 8.15823 11.9047 8.06571 12.2157C7.97863 12.5046 7.66841 13.0267 6.51461 14.8152L5.06692 17.048V25.0185C5.81254 25.0741 5.97037 25.1129 6.17174 25.2296C6.31869 25.3129 6.50373 25.4906 6.60714 25.6406C6.71598 25.8072 6.85749 25.935 6.99899 25.9961C7.11873 26.0516 7.39085 26.1238 7.59766 26.1572C7.84801 26.196 9.07257 26.2127 11.2223 26.2016L14.4606 26.1849C14.7926 25.9628 14.9341 25.8072 14.9885 25.6961C15.0375 25.5851 15.081 25.374 15.081 25.2296C15.081 25.0741 15.0375 24.8797 14.9776 24.7686C14.9178 24.6519 14.7817 24.5242 14.6402 24.4464C14.5096 24.3798 14.3191 24.3242 14.2266 24.3242C14.1286 24.3242 13.9817 24.2909 13.9 24.2465C13.8129 24.2076 13.7313 24.1132 13.7095 24.041C13.6878 23.9687 13.666 23.8632 13.666 23.8132C13.666 23.7577 13.7259 23.6521 13.8021 23.5744C13.9272 23.4411 13.9599 23.4355 14.5912 23.4355C15.0103 23.4355 15.3096 23.4078 15.4239 23.3633C15.5164 23.3189 15.6634 23.2078 15.7505 23.1134C15.8321 23.0134 15.9246 22.8412 15.9573 22.7301C16.0062 22.569 16.0062 22.458 15.9573 22.2691C15.9192 22.1191 15.8212 21.947 15.7178 21.8414C15.6253 21.747 15.4783 21.6359 15.3967 21.6081C15.3096 21.5748 15.0538 21.5471 14.8252 21.5471C14.4824 21.5526 14.3735 21.5304 14.2538 21.436C14.1449 21.3582 14.1014 21.2749 14.1014 21.1471C14.0959 21.0472 14.1449 20.9027 14.2048 20.825C14.3082 20.6861 14.3191 20.6861 15.3368 20.6584C15.9355 20.6417 16.4035 20.6028 16.4689 20.5695C16.5287 20.5362 16.643 20.4306 16.7301 20.3306C16.8117 20.2362 16.8988 20.064 16.9315 19.953C16.9587 19.8363 16.9641 19.653 16.9369 19.5475C16.9151 19.442 16.8498 19.2809 16.79 19.192C16.7355 19.1087 16.5995 18.9809 16.4961 18.9143C16.3219 18.8088 16.2022 18.7976 15.2824 18.7699C14.3354 18.7421 14.2483 18.731 14.1776 18.631C14.134 18.5699 14.1014 18.4588 14.0959 18.3811C14.0959 18.3033 14.1449 18.1756 14.2102 18.0922L14.3191 17.9367C17.0839 17.9367 17.1274 17.9367 17.3669 17.809C17.5192 17.7257 17.6608 17.5979 17.7369 17.459C17.8349 17.2869 17.8567 17.1758 17.8458 16.9092C17.8349 16.687 17.7914 16.5204 17.7152 16.4093C17.6553 16.3204 17.492 16.1871 17.3614 16.1205L17.122 15.9927C10.5747 15.9927 10.0849 15.9816 9.98145 15.9094C9.9107 15.865 9.83451 15.7705 9.8073 15.7039C9.7692 15.6095 9.81274 15.3651 9.97057 14.7707C10.0903 14.3264 10.2373 13.6932 10.2917 13.3544C10.3515 13.0156 10.4169 12.4546 10.4332 12.1047C10.4549 11.6659 10.4386 11.327 10.3842 11.0216C10.3407 10.7772 10.2481 10.4384 10.1719 10.2717C10.0957 10.1051 9.93792 9.86626 9.82362 9.74962C9.70933 9.62742 9.47531 9.46634 9.31203 9.39414C9.11611 9.29971 8.87119 9.24417 8.59907 9.22751L8.18545 9.19973L8.18 10.5272ZM0.82181 25.5462H4.19613V15.8816H0.82181V25.5462ZM20.1207 4.34524C23.8597 4.35634 24.442 4.36745 24.5237 4.43966C24.5781 4.48409 24.6434 4.57852 24.6706 4.65072C24.6978 4.72293 24.6924 4.83957 24.6597 4.93955C24.6325 5.03397 24.5563 5.13395 24.4965 5.16172C24.4257 5.19505 22.8311 5.21727 15.6797 5.21727L15.5436 5.07841C15.4729 5.00065 15.4076 4.87845 15.4076 4.80069C15.4076 4.72293 15.4293 4.62295 15.4511 4.56741C15.4729 4.51742 15.5654 4.44521 15.6525 4.40633C15.7831 4.34524 16.7029 4.33413 20.1207 4.34524ZM15.647 7.38346H20.0445C24.3713 7.38346 24.4475 7.38346 24.5509 7.49455C24.6108 7.55565 24.6652 7.65007 24.6652 7.70562C24.6706 7.7556 24.6706 7.85003 24.6652 7.91113C24.6597 7.97222 24.5999 8.06665 24.5346 8.12219C24.4257 8.21662 24.1699 8.22217 15.6253 8.21662L15.5164 8.09442C15.4566 8.02221 15.4021 7.89446 15.3967 7.80559C15.3913 7.69451 15.4348 7.59453 15.5164 7.51121L15.647 7.38346ZM2.49264 22.4357C2.53618 22.4357 2.63415 22.4691 2.71578 22.5135C2.79742 22.5524 2.8845 22.6301 2.90627 22.6801C2.92804 22.7301 2.94981 23.0245 2.94981 23.3411C2.94981 23.8354 2.93348 23.9243 2.84096 24.0354C2.77021 24.1132 2.6668 24.1576 2.55251 24.1576C2.45455 24.1576 2.32393 24.1243 2.25317 24.0743C2.13888 23.9965 2.13344 23.9521 2.128 23.33C2.12256 22.669 2.12256 22.669 2.2695 22.5524C2.35114 22.4913 2.45455 22.4357 2.49264 22.4357Z" fill="#0429AE"/>
</svg>
