<svg width="28" height="28" viewBox="0 0 28 28" fill="none" xmlns="http://www.w3.org/2000/svg">
<path fill-rule="evenodd" clip-rule="evenodd" d="M18.6932 1.00062C18.8521 0.994945 19.1075 1.02899 19.2608 1.07437C19.4197 1.11976 19.6524 1.2389 19.7886 1.32967C19.9192 1.42612 20.1065 1.61901 20.1973 1.76084C20.2881 1.90268 20.4016 2.16365 20.447 2.33952C20.4924 2.52107 20.6797 3.80892 20.8614 5.21023C21.06 6.74203 21.2133 7.74054 21.2473 7.72919C21.2814 7.71784 21.7922 6.96329 22.3825 6.05556C22.9728 5.14782 23.5631 4.3025 23.6879 4.17768C23.8128 4.0472 24.0682 3.877 24.2555 3.7919C24.5393 3.66141 24.6755 3.63304 25.0501 3.63304C25.4134 3.63872 25.5667 3.66708 25.8164 3.78055C25.9867 3.85998 26.2421 4.0245 26.384 4.15499C26.5259 4.2798 26.7132 4.5351 26.804 4.71665C26.9062 4.93791 26.9743 5.17619 26.9913 5.42014C27.014 5.66977 26.9913 5.89103 26.9345 6.10094C26.8835 6.27682 26.6621 6.69664 26.4237 7.06541C26.191 7.42283 25.1012 9.09646 21.9965 13.845L22.5528 18.0717C22.916 20.8516 23.0977 22.4061 23.0806 22.6103C23.0636 22.8089 22.9898 23.0358 22.8876 23.2287C22.7968 23.3989 22.6095 23.6315 22.4676 23.7563C22.3257 23.8755 22.0987 24.0116 21.9568 24.0627C21.8149 24.1081 21.2019 24.2102 20.5946 24.2896C19.5048 24.4371 19.4424 24.4542 16.508 25.3335C14.8676 25.8271 12.2057 26.6327 10.588 27.115C8.91365 27.6199 7.55712 28 7.42657 28C7.29603 28 7.04061 27.9262 6.81358 27.8298C6.60357 27.7334 6.34816 27.5745 6.24599 27.4724C6.13815 27.3703 5.99625 27.1774 5.92247 27.0355C5.85436 26.8937 4.48647 22.4288 2.88588 17.1072C0.138755 7.98449 -0.0258456 7.41716 0.00253376 7.09378C0.0195614 6.90088 0.0876718 6.62856 0.167134 6.46971C0.24092 6.31653 0.394169 6.0896 0.513362 5.97613C0.632555 5.85699 0.836887 5.70948 0.967432 5.65275C1.10365 5.59034 2.00612 5.301 4.74756 4.48404L4.77594 4.20038C4.78729 4.0472 4.84973 3.80324 4.91216 3.66141C4.9746 3.51958 5.12217 3.29264 5.24704 3.16216C5.36623 3.026 5.59894 2.8558 5.75219 2.77637C5.99625 2.6629 6.58087 2.57213 9.75368 2.15798C11.797 1.89133 14.5838 1.52257 15.9404 1.34102C17.2969 1.1538 18.5399 1.00629 18.6932 1.00062ZM9.76503 3.03734C7.7955 3.29264 6.22329 3.52525 6.13815 3.57064C6.04734 3.61602 5.92247 3.71247 5.85436 3.78622C5.78057 3.8543 5.70111 4.00748 5.66705 4.11528C5.62165 4.2798 5.84868 6.13498 6.92142 14.2705C7.64226 19.7453 8.26093 24.3067 8.30066 24.3974C8.34039 24.4882 8.44823 24.6244 8.53904 24.6981C8.62986 24.7719 8.7831 24.8513 8.87392 24.874C8.98744 24.908 9.45853 24.8683 10.2929 24.7605C10.9797 24.6754 13.8006 24.301 16.5647 23.9379C19.3289 23.5748 21.6503 23.2457 21.7298 23.206C21.8092 23.1663 21.9284 23.0699 21.9965 22.9961C22.0703 22.928 22.1498 22.7749 22.1838 22.6671C22.2292 22.5082 22.1498 21.765 21.7525 18.7808C21.4857 16.7555 21.253 15.0818 21.2416 15.0648C21.2303 15.0478 21.2076 15.0478 21.1962 15.0648C21.1849 15.0818 20.7819 15.6945 20.3108 16.4264C19.834 17.1583 19.3743 17.8334 19.2948 17.9242C19.2154 18.0093 18.6251 18.5369 17.9837 19.0872C17.2004 19.768 16.7464 20.1197 16.5931 20.1708C16.4569 20.2105 16.2526 20.2275 16.0823 20.2105C15.9006 20.1935 15.719 20.1254 15.5771 20.0176C15.4523 19.9325 15.2933 19.7453 15.2195 19.6035C15.1344 19.4446 15.089 19.2517 15.089 19.0929C15.089 18.951 15.1741 18.5766 15.2763 18.2589C15.3728 17.9412 15.4466 17.6632 15.4295 17.6518C15.4125 17.6348 14.1468 17.788 12.62 17.9922C11.0932 18.1908 9.748 18.3553 9.64016 18.3553C9.50772 18.3591 9.39799 18.3175 9.31096 18.2305C9.22015 18.1341 9.18609 18.049 9.19744 17.9071C9.2088 17.7785 9.26177 17.6802 9.35637 17.6121C9.46989 17.5327 10.151 17.4249 12.5349 17.1072C14.2036 16.8859 15.6225 16.6817 15.685 16.659C15.7644 16.625 15.8382 16.4831 15.929 16.1654C16.0425 15.7967 16.2015 15.513 16.8258 14.5542C17.2629 13.8791 17.5523 13.3855 17.5126 13.3742C17.4785 13.3628 16.6953 13.4593 15.7871 13.5897C14.8733 13.7146 14.039 13.8167 13.9425 13.8167C13.8403 13.8167 13.7041 13.7826 13.6417 13.7429C13.5792 13.6975 13.5111 13.5954 13.4884 13.516C13.46 13.4139 13.4714 13.3004 13.5281 13.1926C13.5735 13.0962 13.6587 13.0111 13.7154 12.994C13.7665 12.9827 14.8109 12.8352 16.0255 12.6763C17.2402 12.5175 18.2448 12.3813 18.2448 12.3756C18.2505 12.3756 18.7556 11.6041 19.3686 10.668C20.3335 9.19291 20.4754 8.94328 20.4527 8.79578C20.4357 8.69933 20.2427 7.28667 20.027 5.64708C19.8113 4.00748 19.6183 2.60617 19.5956 2.52674C19.5786 2.44732 19.5162 2.31683 19.4537 2.23173C19.397 2.14096 19.2778 2.03884 19.187 1.99345C19.1018 1.95374 18.9429 1.90268 18.8351 1.88566C18.7272 1.86864 17.4218 2.02182 15.9404 2.22038C14.459 2.41328 11.6778 2.78204 9.76503 3.03734ZM24.3974 4.69963C24.2896 4.77338 24.1477 4.92656 24.0853 5.04003C24.0228 5.1535 23.9831 5.25562 24.0001 5.26696C24.0171 5.27831 24.4201 5.55063 24.8912 5.86834C25.368 6.18037 25.771 6.44134 25.788 6.44134C25.805 6.44134 25.8788 6.33355 25.9526 6.20306C26.0264 6.0669 26.1059 5.86834 26.1286 5.76054C26.1513 5.65275 26.1399 5.45418 26.1059 5.3237C26.0718 5.18754 25.9583 4.98897 25.8561 4.8755C25.7596 4.76204 25.6121 4.63722 25.5326 4.59751C25.4531 4.5578 25.2999 4.51241 25.192 4.49539C25.0842 4.47837 24.9026 4.48972 24.7947 4.51808C24.6869 4.54645 24.5053 4.62588 24.3974 4.69963ZM1.19447 6.53212C1.0923 6.60587 0.973108 6.77607 0.922025 6.91223C0.848238 7.10512 0.842563 7.20157 0.88797 7.40581C0.922025 7.54764 2.22748 11.9104 3.79402 17.1072C5.35488 22.304 6.68303 26.6157 6.73979 26.6951C6.79655 26.7746 6.90439 26.8824 6.97818 26.9391C7.05196 26.9958 7.21657 27.0526 7.34143 27.0752C7.52874 27.0979 8.102 26.9448 10.5483 26.2129C12.1886 25.7193 13.5679 25.2995 13.6133 25.2711C13.6871 25.2314 13.6814 25.2257 13.5962 25.2201C13.5452 25.2201 12.5122 25.3506 11.2975 25.5094C9.78773 25.708 9.02149 25.7817 8.84554 25.759C8.70364 25.7363 8.48796 25.6683 8.36309 25.6115C8.23822 25.5548 8.03957 25.43 7.92037 25.3335C7.7955 25.2314 7.64226 25.0215 7.54009 24.8116C7.38117 24.4655 7.33008 24.1308 6.1495 15.1215C5.47975 9.98717 4.91784 5.69246 4.90649 5.579C4.89513 5.45986 4.86108 5.36341 4.8327 5.36908C4.81 5.36908 4.02105 5.60169 3.08453 5.88536C2.00612 6.20874 1.31366 6.44702 1.19447 6.53212ZM23.2055 6.58318C23.2509 6.62289 23.6596 6.90088 24.1136 7.1959L24.9366 7.72919L25.3056 7.17888C23.8979 6.25412 23.4836 5.98748 23.4723 5.98748C23.4666 5.98748 23.3814 6.10662 23.2906 6.24845C23.1431 6.47538 23.1317 6.5151 23.2055 6.58318ZM17.0926 15.774C17.0812 15.808 17.4729 16.0974 17.9667 16.4207C18.6932 16.8973 18.8748 16.9937 18.9259 16.9313C18.9656 16.8859 20.22 14.9684 21.7241 12.6707C23.2225 10.3673 24.4485 8.4724 24.4372 8.46105C24.4315 8.44403 24.0285 8.17738 23.546 7.85968C23.0636 7.54764 22.6549 7.29234 22.6379 7.29234C22.6209 7.29234 21.3722 9.18724 19.8624 11.5076C18.3526 13.8223 17.1039 15.7399 17.0926 15.774ZM16.5136 17.1356C16.4512 17.3568 16.3944 17.5497 16.3944 17.5781C16.3944 17.6008 16.4626 17.6348 16.5477 17.6518C16.6385 17.6689 16.7974 17.7369 16.9053 17.805C17.0131 17.8731 17.2004 18.0149 17.3196 18.1284L17.5296 18.327C18.0291 17.8901 18.1823 17.7369 18.1937 17.7029C18.2051 17.6689 17.9383 17.4646 17.6034 17.2434C17.2685 17.0278 16.9223 16.8008 16.8428 16.7441C16.7634 16.6931 16.6839 16.6704 16.6669 16.6931C16.6499 16.7157 16.5818 16.9143 16.5136 17.1356ZM15.9404 19.1212C15.9404 19.1666 16.0028 19.246 16.0823 19.2914C16.2071 19.3652 16.2412 19.3652 16.3774 19.2858C16.4682 19.2347 16.6045 19.1269 16.6896 19.0418L16.8485 18.8943C16.6499 18.6901 16.4966 18.5766 16.3774 18.5199C16.2639 18.4631 16.1561 18.4121 16.1447 18.4121C16.1277 18.4121 16.0766 18.5539 16.0312 18.7241C15.9801 18.8943 15.9404 19.0758 15.9404 19.1212ZM17.5694 4.51808C17.7056 4.51241 17.8645 4.5351 17.9269 4.56914C17.9894 4.59751 18.0632 4.68828 18.0972 4.76771C18.135 4.86227 18.135 4.9606 18.0972 5.06272C18.0632 5.1535 17.995 5.24994 17.9383 5.28398C17.8872 5.3237 16.2298 5.56198 14.266 5.81728C11.7005 6.15768 10.6505 6.27114 10.5483 6.2371C10.4688 6.20874 10.3723 6.11229 10.3326 6.02719C10.2929 5.93642 10.2815 5.8116 10.3042 5.72083C10.3326 5.6414 10.4007 5.53928 10.4632 5.49957C10.5256 5.45418 12.0638 5.22725 13.9538 4.97195C15.8098 4.728 17.4388 4.51808 17.5694 4.51808ZM18.2959 8.40999C18.3583 8.42701 18.4548 8.47807 18.5059 8.5348C18.557 8.58586 18.6137 8.69366 18.6307 8.77876C18.6591 8.90357 18.6307 8.97732 18.5059 9.09646C18.3697 9.24397 18.2845 9.26666 17.6715 9.34609C17.2969 9.39715 15.1003 9.68649 12.7903 9.99285C9.85017 10.3786 8.55039 10.5261 8.44823 10.4921C8.37444 10.4637 8.27228 10.373 8.22119 10.2879C8.15876 10.1744 8.14741 10.095 8.19281 9.97583C8.22119 9.89073 8.31201 9.78861 8.39147 9.74322C8.47093 9.70351 10.6561 9.3858 13.3579 9.02838C16.0085 8.67096 18.2334 8.39297 18.2959 8.40999ZM11.0989 13.3515C11.1556 13.3685 11.2351 13.4082 11.2805 13.4422C11.3202 13.4763 11.3827 13.567 11.411 13.6465C11.4394 13.7372 11.4394 13.8394 11.4054 13.9301C11.3713 14.0096 11.2748 14.106 11.1897 14.1457C11.1045 14.1854 10.6334 14.2649 10.151 14.3273C9.66854 14.3897 9.19177 14.4407 9.10095 14.4407C9.00446 14.4407 8.87392 14.384 8.80013 14.3103C8.72635 14.2365 8.66959 14.1174 8.66959 14.0152C8.66959 13.9131 8.72067 13.794 8.80013 13.7202C8.90798 13.6181 9.0896 13.5784 9.96369 13.4649C10.537 13.3912 11.0478 13.3401 11.0989 13.3515ZM13.4827 20.9707C13.5565 20.9651 13.6871 21.0388 13.7835 21.1353C13.8744 21.226 13.9538 21.3565 13.9538 21.4189C13.9538 21.4813 13.8971 21.6005 13.8233 21.6799C13.7098 21.8047 13.6133 21.8331 12.9322 21.9295C12.5122 21.9863 11.7175 22.0884 11.1726 22.1621C10.6278 22.2302 10.1113 22.2699 10.0204 22.2472C9.92396 22.2246 9.83314 22.1451 9.77638 22.026C9.69125 21.8615 9.69125 21.8274 9.77638 21.6572C9.82747 21.5608 9.92396 21.4643 9.99207 21.4473C10.0659 21.4303 10.8491 21.3168 11.7402 21.1977C12.6313 21.0785 13.4146 20.9764 13.4827 20.9707Z" fill="#0429AE"/>
</svg>
