<svg width="28" height="28" viewBox="0 0 28 28" fill="none" xmlns="http://www.w3.org/2000/svg">
<path fill-rule="evenodd" clip-rule="evenodd" d="M5.4641 2.00038C5.57503 1.99491 5.83776 2.04962 6.0421 2.11528C6.28731 2.19735 6.52084 2.32867 6.70766 2.48735C6.8653 2.62414 7.05796 2.843 7.12802 2.97979C7.20392 3.11658 7.27982 3.31356 7.29733 3.41752C7.32069 3.52148 7.46665 4.76352 7.62428 6.18066C7.78775 7.5978 7.9162 8.87815 7.9162 9.02588C7.92203 9.22286 7.87533 9.387 7.75272 9.60039C7.65347 9.78096 7.49584 9.96152 7.35572 10.0545C7.20976 10.153 6.78356 10.3008 6.1647 10.4704C5.63341 10.6126 5.09045 10.7823 4.95033 10.8479C4.81605 10.9136 4.60003 11.0613 4.46575 11.1707C4.33731 11.2856 4.15048 11.4881 4.06291 11.6249C3.96949 11.7617 3.85857 12.0079 3.80602 12.172C3.75348 12.3362 3.71261 12.6098 3.71261 12.7739C3.71261 12.9381 3.75348 13.2116 3.80602 13.3758C3.85857 13.5399 4.565 14.968 5.37069 16.5493C6.17638 18.1306 6.91201 19.5149 7.01126 19.6243C7.11051 19.7392 7.31485 19.9143 7.47832 20.0237C7.63596 20.1332 7.93955 20.27 8.14973 20.3302C8.35991 20.3903 8.65766 20.4341 8.82113 20.4341C8.97877 20.4341 9.28236 20.3903 9.49254 20.3302C9.77278 20.2481 10.088 20.0785 10.6894 19.69C11.1389 19.3945 11.6235 19.11 11.7695 19.0498C11.968 18.9677 12.1139 18.9513 12.3533 18.9677C12.5285 18.9841 12.7795 19.0498 12.908 19.11C13.0481 19.1756 14.0231 20.0511 15.3367 21.2931C17.2341 23.0769 17.5494 23.3997 17.6428 23.635C17.7187 23.821 17.7538 24.0508 17.7538 24.3463C17.7538 24.7074 17.7246 24.8387 17.602 25.0849C17.5144 25.2491 17.3276 25.4789 17.1933 25.5993C17.0532 25.7142 16.6094 25.9549 16.2066 26.1355C15.8038 26.3161 15.3192 26.524 15.1265 26.6006C14.9339 26.6772 14.531 26.7976 14.2333 26.8687C13.8421 26.9672 13.5385 27 13.1123 27C12.7153 27 12.3767 26.9617 12.0439 26.8851C11.7812 26.8249 11.4075 26.71 11.2148 26.6334C11.0222 26.5568 10.5785 26.3489 10.2223 26.1683C9.86619 25.9823 9.2123 25.6102 8.76275 25.3312C8.3132 25.0521 7.65931 24.6035 7.30317 24.3408C6.94704 24.0782 6.22892 23.4544 5.69764 22.9565C5.16635 22.4586 4.50078 21.7637 4.2147 21.419C3.92863 21.0743 3.4674 20.4669 3.193 20.0785C2.9186 19.69 2.4924 18.9951 2.24135 18.5464C1.99614 18.0923 1.67504 17.4685 1.53492 17.1512C1.3948 16.8338 1.15543 16.2319 1.00947 15.8106C0.863511 15.3893 0.688361 14.8476 0.62414 14.6069C0.559918 14.3661 0.454828 13.9229 0.390607 13.622C0.332224 13.3211 0.238811 12.7684 0.186266 12.3909C0.139559 12.0134 0.0694996 11.3349 0.0344697 10.8862C-0.0180751 10.2296 -0.0122368 9.85756 0.0636613 9.00946C0.110368 8.43495 0.192104 7.71817 0.238811 7.42271C0.285517 7.13271 0.373092 6.65669 0.437313 6.37217C0.501535 6.08764 0.594948 5.72652 0.647493 5.57879C0.705876 5.42558 0.834319 5.14653 0.939409 4.94956C1.0445 4.75258 1.24884 4.44617 1.3948 4.26561C1.53492 4.08505 1.79764 3.81694 1.96695 3.66921C2.1421 3.52148 2.43986 3.30261 2.63252 3.18224C2.82518 3.05639 3.3915 2.77734 3.88776 2.55301C4.38402 2.32867 4.89779 2.11528 5.02623 2.07698C5.15467 2.03868 5.35318 2.00038 5.4641 2.00038ZM2.66755 4.27108C2.42818 4.479 2.13042 4.79635 2.00198 4.97691C1.8677 5.15748 1.69839 5.45294 1.62249 5.6335C1.54659 5.81406 1.41815 6.24632 1.34225 6.59103C1.26635 6.93574 1.1671 7.50478 1.11456 7.84949C1.06201 8.1942 1.00947 8.97116 0.986115 9.57304C0.962762 10.2679 0.980277 10.9573 1.02114 11.4607C1.06201 11.8985 1.14375 12.5496 1.20797 12.9107C1.27219 13.2718 1.40064 13.8628 1.48821 14.2239C1.58162 14.585 1.78013 15.2252 1.93192 15.6465C2.08372 16.0678 2.3698 16.7572 2.5683 17.1785C2.7668 17.5998 3.08207 18.2017 3.27473 18.5191C3.4674 18.8364 3.82354 19.3781 4.06875 19.7228C4.31396 20.0675 4.69928 20.5764 4.92114 20.8445C5.14883 21.1126 5.55168 21.5613 5.82024 21.8348C6.0888 22.1139 6.56171 22.5571 6.87114 22.8197C7.17473 23.0878 7.6126 23.4435 7.83446 23.6131C8.05631 23.7827 8.47667 24.0837 8.76275 24.2752C9.04883 24.4667 9.52757 24.7621 9.81365 24.9263C10.0997 25.0959 10.6135 25.3695 10.9521 25.5336C11.2907 25.7032 11.7636 25.9002 12.003 25.9659C12.3533 26.0698 12.5693 26.0917 13.1123 26.0917C13.5677 26.0917 13.9063 26.0589 14.1632 25.9932C14.3734 25.9385 14.963 25.7142 15.4768 25.4898C15.9906 25.26 16.4752 25.0248 16.5452 24.9591C16.6211 24.8934 16.7204 24.7731 16.7671 24.6855C16.8138 24.6035 16.8488 24.4393 16.8488 24.3189C16.8488 24.1986 16.8196 24.0453 16.7846 23.9742C16.7496 23.9086 15.7571 22.951 14.5777 21.8403C12.8029 20.1715 12.4117 19.8322 12.2774 19.8322C12.1898 19.8322 11.968 19.9307 11.7578 20.062C11.5593 20.1934 11.3666 20.3137 11.3316 20.3356C11.2966 20.3575 12.1198 21.1673 13.2699 22.2507C15.074 23.9414 15.2725 24.1438 15.2725 24.3025C15.2725 24.4229 15.2258 24.5323 15.1265 24.6199C15.0331 24.7111 14.9222 24.7567 14.7937 24.7567C14.6186 24.7567 14.4084 24.5761 12.5285 22.8252L10.4559 20.8937C10.0472 21.0852 9.75527 21.1782 9.53341 21.222C9.31739 21.2713 8.99045 21.3096 8.80362 21.3096C8.62263 21.3096 8.26066 21.2603 8.00377 21.2001C7.74688 21.1345 7.40242 21.0196 7.24479 20.9375C7.08132 20.8554 6.76605 20.6201 6.54419 20.4068C6.25228 20.1386 6.05961 19.8924 5.8903 19.586C5.76186 19.3453 5.04958 17.9555 4.30812 16.4946C3.56665 15.0337 2.9186 13.6931 2.86605 13.5126C2.81935 13.332 2.77848 13.0092 2.77848 12.8013C2.77848 12.5879 2.81935 12.2596 2.87189 12.0626C2.9186 11.8656 3.05872 11.5319 3.17548 11.3239C3.29809 11.1051 3.5433 10.7987 3.7418 10.6126C3.93446 10.4321 4.26141 10.2023 4.47159 10.0983C4.68177 9.99435 4.85692 9.91227 4.8686 9.9068C4.88027 9.90133 4.75183 8.68117 4.58836 7.1929C4.32563 4.86201 4.29644 4.46806 4.3665 4.35863C4.40737 4.29297 4.5183 4.21089 4.61755 4.17259C4.74599 4.12882 4.82773 4.12882 4.92114 4.17806C4.99704 4.21089 5.09045 4.29297 5.13716 4.35863C5.19165 4.44252 5.30841 5.29609 5.48746 6.91932C5.63925 8.25986 5.77937 9.41983 5.80273 9.49643L5.84359 9.64417C6.56754 9.44172 6.82443 9.33776 6.88281 9.28851C6.94704 9.22833 6.9879 9.11342 6.98207 8.98211C6.98207 8.87267 6.84778 7.60327 6.68431 6.16425C6.42742 3.90996 6.36904 3.52695 6.26395 3.34091C6.19389 3.22601 6.0421 3.08375 5.93117 3.02356C5.82024 2.96885 5.61006 2.92507 5.4641 2.92507C5.25392 2.92507 4.99704 3.01809 4.15048 3.41204C3.24554 3.82788 3.0412 3.94826 2.66755 4.27108ZM9.1364 6.42688H27.7081L28 6.70046V24.5378L27.7139 24.8114H18.9506L18.8047 24.6746C18.7112 24.587 18.6587 24.4776 18.6587 24.3736C18.6587 24.2752 18.7112 24.1548 18.9448 23.9359H27.0659V23.8101C27.06 23.7171 26.266 23.0878 23.4928 20.9813C21.5311 19.493 19.8556 18.2072 19.7621 18.1196C19.6493 18.0211 19.5928 17.9172 19.5928 17.8078C19.5928 17.7093 19.6454 17.5889 19.7388 17.5068C19.8264 17.4193 19.9431 17.37 20.0599 17.37C20.2058 17.37 20.8072 17.8078 27.0367 22.5571L27.0542 19.3179C27.06 17.5396 27.06 14.6342 27.0367 9.6387L22.1325 13.8682C17.8997 17.5232 17.1758 18.1196 16.8488 18.2674C16.4985 18.426 16.4226 18.437 15.8563 18.437C15.2958 18.437 15.2083 18.4206 14.8696 18.2728C14.5485 18.1306 13.9997 17.6819 11.0747 15.154C8.94374 13.3101 7.63596 12.1392 7.59509 12.0462C7.54838 11.9258 7.56006 11.8602 7.62428 11.7453C7.67683 11.6632 7.78191 11.5756 7.85781 11.5483C7.93955 11.5209 8.06799 11.5154 8.14973 11.5319C8.23147 11.5483 9.75527 12.8232 11.641 14.4537C13.4859 16.0404 15.1032 17.3974 15.2316 17.4685C15.4126 17.5561 15.5761 17.5889 15.8563 17.5889C16.1424 17.5889 16.3 17.5615 16.481 17.4685C16.6153 17.3974 19.0557 15.3346 27.0659 8.42401V7.30233H9.14224L8.99628 7.16554C8.90287 7.078 8.85033 6.96857 8.85033 6.86461C8.85616 6.76065 8.91455 6.64027 8.99628 6.56367L9.1364 6.42688Z" fill="#0429AE"/>
</svg>
