<svg width="28" height="28" viewBox="0 0 28 28" fill="none" xmlns="http://www.w3.org/2000/svg">
<path fill-rule="evenodd" clip-rule="evenodd" d="M4.39219 6C4.48359 6 5.0625 6.2026 5.7125 6.45584C6.34727 6.70909 6.91602 6.9674 6.98203 7.02818C7.04297 7.08896 7.1293 7.23078 7.175 7.34221C7.21562 7.45364 7.24102 7.60052 7.23594 7.66636C7.2207 7.78286 7.26133 7.80818 7.70312 7.98039C8.18047 8.16779 8.19063 8.16779 9.15039 8.19818C9.67852 8.21338 10.3793 8.2539 10.6992 8.27922C11.0191 8.30961 11.466 8.38052 11.6895 8.43623C11.9129 8.49195 12.1059 8.54766 12.1211 8.55779C12.1363 8.56792 12.309 8.43117 12.502 8.24883C12.6949 8.06649 12.9742 7.8639 13.1113 7.79805C13.2535 7.72714 13.4922 7.6461 13.6445 7.62078C13.8781 7.57519 14.066 7.59039 14.7871 7.69675C15.2645 7.77273 15.7062 7.84364 15.7723 7.8639C15.8383 7.88416 15.9246 7.94494 15.9652 8.00065C16.0008 8.05636 16.0312 8.14753 16.0312 8.20325C16.0363 8.25896 15.9906 8.36532 15.9297 8.4413C15.862 8.53584 15.7824 8.58312 15.691 8.58312C15.6098 8.58312 15.1832 8.5274 14.7363 8.45649C14.2895 8.39065 13.8578 8.35013 13.7715 8.36532C13.6902 8.38052 13.5531 8.43117 13.4668 8.47169C13.3855 8.51221 12.9844 8.85662 12.5781 9.23649C12.1719 9.61636 11.593 10.133 11.2934 10.3812C10.9887 10.6294 10.4504 11.0447 10.1 11.2979C9.57695 11.6727 9.45508 11.7842 9.44492 11.8905C9.42969 12.0019 9.47031 12.0526 9.64805 12.1691C9.76484 12.2501 9.94258 12.3413 10.0391 12.3768C10.1355 12.4071 10.3336 12.4325 10.4707 12.4325C10.6129 12.4325 10.8414 12.4021 10.9785 12.3666C11.1207 12.3261 11.4152 12.2045 11.6387 12.0881C11.8621 11.9716 12.2379 11.7234 12.4664 11.536C12.7 11.3435 12.9844 11.1409 13.1012 11.0751C13.218 11.0143 13.3754 10.9636 13.4566 10.9636C13.5328 10.9636 13.6801 10.9991 13.7867 11.0447C13.8883 11.0852 14.1219 11.2625 14.3047 11.4347C14.4875 11.6018 14.8074 11.8551 15.0156 11.9868C15.2238 12.1235 15.5793 12.3008 15.8027 12.3869C16.0262 12.473 16.4375 12.5794 16.7168 12.6249C17.1281 12.6908 17.3211 12.6958 17.7324 12.6503C18.1742 12.6047 18.2605 12.6097 18.3926 12.6857C18.4738 12.7313 19.073 13.1568 19.7129 13.6278C20.3527 14.1039 21.0484 14.6104 21.6172 15.0156L22.4195 14.499C22.8562 14.2204 23.2219 13.9823 23.227 13.9823C23.232 13.9773 22.7699 12.7921 22.1961 11.3435C21.6223 9.89494 21.1297 8.65909 21.0586 8.48182L20.3883 8.74013C20.0176 8.87688 19.5402 9.0187 19.332 9.04909C19.002 9.09974 18.8445 9.09468 18.1133 8.98831C17.3973 8.88195 17.2602 8.85156 17.1637 8.75026C17.0977 8.68442 17.0469 8.57299 17.0469 8.49195C17.0469 8.41091 17.0977 8.30455 17.3059 8.10195L18.1285 8.22351C18.677 8.29948 19.0375 8.32987 19.2051 8.30455C19.3473 8.28935 19.7586 8.16273 20.1191 8.03104C20.7031 7.81831 20.7793 7.77779 20.7691 7.68156C20.759 7.62078 20.7742 7.48403 20.8047 7.37766C20.8301 7.27636 20.9164 7.12948 20.9926 7.05351C21.084 6.9674 21.5512 6.75468 22.2926 6.46091C22.9273 6.20766 23.5164 6 23.5977 6C23.6789 6 23.8262 6.03039 23.9176 6.07091C24.0039 6.10636 24.1309 6.19247 24.1918 6.25831C24.2527 6.32416 24.5422 6.98766 24.8367 7.73221C25.1313 8.48182 25.375 9.1352 25.375 9.19091C25.375 9.24662 25.3191 9.34792 25.248 9.41883C25.182 9.48974 25.0754 9.54545 25.0094 9.54545C24.9434 9.54545 24.8418 9.51 24.7809 9.46948C24.6945 9.41377 24.5168 9.02377 24.1512 8.08675C23.8719 7.3726 23.6383 6.78 23.6332 6.76987C23.6281 6.76481 23.1559 6.94208 21.541 7.58026L21.6984 7.99052C21.7848 8.21844 22.3637 9.6974 22.9934 11.2827C23.618 12.863 24.1512 14.1545 24.1816 14.1545C24.2121 14.1545 24.6793 13.9823 25.2227 13.7696C25.766 13.5569 26.218 13.3796 26.2281 13.3745C26.2332 13.3695 26.0199 12.8174 25.7559 12.1387C25.4918 11.4651 25.2734 10.8573 25.2734 10.7864C25.2734 10.7155 25.3191 10.6142 25.375 10.5584C25.4359 10.4977 25.5477 10.4571 25.6441 10.4571C25.7355 10.4521 25.8422 10.4926 25.893 10.5432C25.9387 10.5939 26.2078 11.2118 26.4922 11.9108C26.7715 12.6148 27 13.2581 27 13.3442C27 13.4252 26.9594 13.5771 26.9137 13.6835C26.8629 13.7848 26.7766 13.9013 26.7207 13.9469C26.6648 13.9925 26.1012 14.2305 25.4766 14.4787C24.7199 14.7775 24.2629 14.9295 24.1309 14.9345C24.009 14.9345 23.8465 14.889 23.7246 14.813C23.5266 14.6965 23.5215 14.6965 23.3691 14.7877C23.2879 14.8434 22.968 15.046 22.0996 15.6132L22.1656 15.8817C22.2062 16.0438 22.2164 16.2565 22.2012 16.4084C22.1809 16.5452 22.1199 16.763 22.059 16.8896C21.998 17.0162 21.8609 17.2036 21.7594 17.3049C21.6527 17.4113 21.4699 17.5481 21.3531 17.6088C21.1805 17.7 21.0484 17.7253 20.7184 17.7253C20.3781 17.7253 20.2969 17.7405 20.2969 17.8013C20.2969 17.8418 20.2613 17.9887 20.2105 18.1305C20.1547 18.3027 20.0379 18.4699 19.8449 18.6674C19.6469 18.8599 19.4793 18.9764 19.3066 19.0321C19.1695 19.0827 18.9207 19.1182 18.4688 19.1182V19.2803C18.4688 19.3714 18.4129 19.569 18.3418 19.7108C18.2707 19.8577 18.1184 20.0704 18.0016 20.1869C17.8797 20.2983 17.6613 20.4351 17.5191 20.4908C17.3719 20.5414 17.1434 20.587 17.0113 20.587C16.8742 20.587 16.6914 20.5668 16.6051 20.5364C16.4426 20.4857 16.4375 20.4908 16.407 20.6478C16.3867 20.739 16.3207 20.9162 16.2598 21.0429C16.1988 21.1695 16.0566 21.3468 15.95 21.443C15.8383 21.5392 15.6504 21.6608 15.5234 21.7165C15.3965 21.7722 15.1832 21.8279 15.041 21.8431C14.8887 21.8583 14.6754 21.833 14.5078 21.7874C14.3402 21.7418 14.0711 21.5949 13.4414 21.1442L13.2789 21.3316C13.1875 21.4379 13.0555 21.5747 12.9844 21.6405C12.9133 21.7064 12.766 21.8077 12.6543 21.8634C12.5426 21.9191 12.3242 21.9799 12.1719 21.9951C11.9891 22.0103 11.8062 21.99 11.6387 21.9394C11.5016 21.8938 11.2832 21.7722 11.1613 21.6658C11.0395 21.5595 10.8973 21.3873 10.8465 21.2809C10.7906 21.1796 10.7297 21.0074 10.7094 20.901C10.6687 20.7136 10.6687 20.7136 10.3691 20.6883C10.1559 20.6681 9.98828 20.6174 9.81055 20.506C9.6582 20.4148 9.49062 20.2578 9.38906 20.1058C9.29766 19.964 9.19609 19.7564 9.1707 19.6348C9.13008 19.4474 9.10977 19.4221 8.98789 19.4221C8.90664 19.4221 8.73398 19.3917 8.5918 19.3512C8.43437 19.3056 8.24141 19.1891 8.08906 19.0574C7.95195 18.9358 7.79961 18.7586 7.75391 18.6623C7.70312 18.5661 7.64727 18.399 7.63203 18.2926C7.60156 18.1153 7.59141 18.1052 7.41367 18.1052C7.30703 18.1052 7.11914 18.0748 6.99219 18.0292C6.86523 17.9887 6.67227 17.8773 6.56055 17.7861C6.44883 17.6949 6.29648 17.4923 6.21523 17.3404C6.10352 17.1226 6.07812 17.001 6.07812 16.7377C6.07812 16.5199 6.11367 16.3375 6.28125 15.9779L6.06797 15.8412C5.94609 15.7652 5.51445 15.4917 4.35156 14.7623L4.21445 14.8484C4.1332 14.894 3.98086 14.9345 3.86914 14.9345C3.73203 14.9345 3.30039 14.7877 2.52344 14.4838C1.89883 14.2305 1.33008 13.9823 1.25898 13.9266C1.19297 13.8709 1.10664 13.7494 1.06602 13.6582C1.03047 13.5721 1 13.4353 1 13.3543C1 13.2783 1.6043 11.6778 2.35078 9.7987C3.09219 7.91961 3.73711 6.32416 3.78789 6.25325C3.83359 6.1874 3.95039 6.1013 4.04688 6.06584C4.14336 6.03039 4.30078 6.00506 4.39219 6V6ZM1.77187 13.3745C1.78203 13.3796 2.23398 13.5569 2.77734 13.7696C3.3207 13.9823 3.79297 14.1545 3.81836 14.1545C3.84883 14.1545 4.38203 12.863 5.00664 11.2827C5.63633 9.6974 6.22539 8.21844 6.3168 7.99052L6.48438 7.57013C4.86953 6.94208 4.39219 6.75974 4.38203 6.75974C4.37187 6.75974 3.77773 8.24883 3.06172 10.0671C2.3457 11.8804 1.7668 13.3695 1.77187 13.3745ZM5.875 11.1662C5.33672 12.5186 4.8543 13.7291 4.80352 13.8658L4.70703 14.1039C5.74805 14.7471 6.21016 15.0358 6.40313 15.1625L6.75352 15.3955C7.02773 15.0814 7.21563 14.8788 7.34258 14.7421C7.46953 14.6053 7.69297 14.4382 7.83008 14.3723C8.00781 14.2913 8.17539 14.2558 8.38867 14.2558C8.60195 14.2558 8.76953 14.2913 8.94727 14.3723C9.08945 14.4382 9.27734 14.5699 9.37383 14.6661C9.46523 14.7623 9.57187 14.894 9.60742 14.9649C9.64297 15.0358 9.69883 15.1929 9.73438 15.3195C9.79023 15.5423 9.79531 15.5474 10.0188 15.5626C10.1406 15.5677 10.359 15.6234 10.5062 15.6892C10.6637 15.7551 10.8465 15.8918 10.9633 16.0286C11.0852 16.1653 11.1969 16.3679 11.2477 16.5401L11.334 16.8288C11.7809 16.8744 11.9941 16.9453 12.1465 17.0365C12.2887 17.1125 12.4715 17.2796 12.5629 17.4012C12.6543 17.5227 12.7559 17.7456 12.7914 17.8925L12.8574 18.1558C13.218 18.1558 13.4211 18.2065 13.5684 18.2774C13.7105 18.3382 13.9035 18.4851 14.0051 18.6016C14.1066 18.7181 14.2285 18.9004 14.2793 19.0017C14.3301 19.1182 14.3605 19.3258 14.3605 19.5234C14.3605 19.7057 14.3301 19.9336 14.2895 20.0299C14.2438 20.1261 14.1676 20.2629 14.1117 20.3338C14.0559 20.4047 14 20.4857 13.9898 20.5212C13.9848 20.5516 14.1016 20.6731 14.2539 20.7896C14.4062 20.901 14.6145 21.0226 14.7109 21.053C14.8074 21.0834 14.975 21.0935 15.0816 21.0732C15.1934 21.053 15.3355 20.977 15.4422 20.8808C15.5437 20.7845 15.6301 20.6377 15.6504 20.5364C15.6707 20.4401 15.6707 20.273 15.6555 20.1717C15.6301 20.0045 15.5691 19.9336 15.168 19.6247C14.9191 19.4271 14.6855 19.2195 14.6551 19.1587C14.6246 19.0929 14.6145 18.9814 14.6297 18.9055C14.65 18.8143 14.7211 18.7332 14.8277 18.6826C14.9598 18.6168 15.0156 18.6117 15.1172 18.6623C15.1883 18.6978 15.5184 18.9358 15.8535 19.1942C16.1887 19.4525 16.5391 19.7006 16.6305 19.7462C16.7168 19.7918 16.8742 19.8273 16.9707 19.8273C17.0672 19.8273 17.2094 19.7969 17.2906 19.7564C17.3668 19.7209 17.4887 19.6196 17.5699 19.5284C17.6816 19.3968 17.707 19.3258 17.707 19.1081C17.702 18.9612 17.6766 18.789 17.641 18.7282C17.6055 18.6674 17.3059 18.4142 16.9707 18.1558C16.6254 17.8925 16.3359 17.6342 16.3055 17.5582C16.2648 17.4619 16.2598 17.3809 16.2953 17.2948C16.3207 17.2239 16.3816 17.1429 16.4273 17.1074C16.4781 17.0719 16.5695 17.0466 16.6406 17.0466C16.727 17.0416 17.0316 17.2442 17.5547 17.6443C17.9863 17.9735 18.3926 18.2673 18.4586 18.2977C18.5195 18.3331 18.6668 18.3584 18.7887 18.3584C18.9258 18.3584 19.0629 18.323 19.1797 18.247C19.2762 18.1812 19.398 18.0495 19.4438 17.9532C19.4945 17.857 19.5352 17.7 19.5352 17.6139C19.5352 17.5227 19.5047 17.386 19.4641 17.31C19.4285 17.229 19.0781 16.9251 18.6922 16.6313C18.2098 16.2666 17.9762 16.0488 17.9508 15.9577C17.9254 15.8868 17.9305 15.7703 17.9609 15.6994C17.9914 15.6284 18.0727 15.5423 18.1438 15.5119C18.2402 15.4613 18.3062 15.4613 18.4078 15.5018C18.484 15.5322 18.9309 15.8513 19.4082 16.216C19.8855 16.5806 20.3324 16.9048 20.4137 16.9352C20.4898 16.9656 20.6219 16.9909 20.7031 16.9909C20.7844 16.9909 20.9164 16.9605 20.9977 16.92C21.0738 16.8795 21.1855 16.7934 21.2465 16.7275C21.3125 16.6668 21.3836 16.53 21.4141 16.4338C21.4445 16.3223 21.4445 16.1906 21.4141 16.0792C21.3887 15.983 21.3227 15.8462 21.2719 15.7753C21.216 15.7044 20.4949 15.1473 19.6621 14.5344L18.1438 13.4201C16.7422 13.41 16.534 13.3897 16.1328 13.2834C15.8687 13.2125 15.4676 13.0707 15.2441 12.9694C15.0207 12.863 14.6805 12.6756 14.4824 12.5439C14.2895 12.4122 13.9848 12.1691 13.807 12.0019L13.4871 11.6981C13.2992 11.8551 13.0453 12.0526 12.7965 12.2451C12.5527 12.4325 12.1414 12.6857 11.8926 12.8123C11.6438 12.9339 11.2883 13.0757 11.1055 13.1213C10.8617 13.1821 10.6535 13.1973 10.3184 13.177C9.94766 13.1517 9.80547 13.1213 9.55664 12.9947C9.38906 12.9086 9.16055 12.7668 9.05391 12.6756C8.94727 12.5844 8.81523 12.4223 8.76445 12.321C8.70859 12.2147 8.66797 12.0222 8.66797 11.8905C8.66797 11.7538 8.71367 11.5562 8.76445 11.4448C8.84062 11.2878 8.99297 11.151 9.49062 10.8016C9.83086 10.5584 10.3996 10.1279 10.75 9.83922C11.1004 9.54545 11.4102 9.27701 11.4457 9.23649C11.4965 9.17571 11.4508 9.15545 11.1664 9.10481C10.9785 9.06935 10.3793 9.0187 9.83594 8.99338C9.29258 8.96299 8.6375 8.9326 8.38867 8.92247C7.99766 8.90221 7.86055 8.87182 7.42891 8.69455C6.93125 8.49195 6.92617 8.49195 6.88555 8.59831C6.86523 8.65909 6.4082 9.8139 5.875 11.1662ZM7.23594 16.0184C6.88555 16.4287 6.83984 16.5097 6.83984 16.687C6.83984 16.7984 6.87539 16.9605 6.91602 17.0416C6.95664 17.1226 7.0582 17.229 7.14453 17.2695C7.23086 17.31 7.37305 17.3455 7.46445 17.3455C7.55078 17.3404 7.67773 17.3151 7.73867 17.2796C7.79961 17.2442 8.1043 16.92 8.41406 16.5604C8.82539 16.0742 8.98281 15.8564 9.00313 15.7247C9.01836 15.6234 9.00313 15.4866 8.9625 15.4005C8.92695 15.3195 8.83555 15.1979 8.75938 15.1321C8.65273 15.046 8.55625 15.0156 8.37852 15.0156C8.16016 15.0156 8.12461 15.0358 7.88594 15.284C7.74375 15.4258 7.44922 15.7601 7.23594 16.0184ZM9.48555 16.4996C9.42461 16.5604 9.15039 16.8694 8.87617 17.1884C8.38867 17.7658 8.38867 17.7658 8.38867 18.0394C8.38867 18.2875 8.40391 18.3331 8.55625 18.4648C8.64258 18.5458 8.79492 18.6269 8.88633 18.6421C8.99805 18.6674 9.10469 18.6471 9.23672 18.5813C9.34844 18.5256 9.63789 18.2318 9.95781 17.8519C10.2777 17.4771 10.5113 17.1581 10.5266 17.0669C10.5469 16.9858 10.5469 16.8542 10.5266 16.7782C10.5113 16.6971 10.4453 16.5806 10.3844 16.5047C10.3184 16.4338 10.1863 16.3578 10.0848 16.3375C9.9832 16.3173 9.83594 16.3173 9.75469 16.3426C9.67344 16.3629 9.55156 16.4338 9.48555 16.4996ZM10.6332 18.2318C10.3844 18.5104 10.1152 18.8396 10.034 18.9662C9.95273 19.0929 9.88672 19.2448 9.88672 19.3106C9.88672 19.3714 9.92734 19.5031 9.97813 19.6044C10.0238 19.7057 10.1254 19.8222 10.2066 19.8577C10.2828 19.8982 10.4301 19.9286 10.5367 19.9286C10.6383 19.9286 10.7703 19.8982 10.8262 19.8627C10.882 19.8222 11.1359 19.5538 11.3848 19.2651C11.6387 18.9764 11.8977 18.6674 11.9586 18.5864C12.0348 18.4851 12.0754 18.3635 12.0703 18.2217C12.0703 18.0495 12.0348 17.9684 11.9078 17.8216C11.7809 17.6899 11.6895 17.6392 11.5371 17.619C11.4203 17.6038 11.2781 17.624 11.207 17.6595C11.141 17.6949 10.882 17.9532 10.6332 18.2318ZM12.0348 19.6753C11.7453 20.0248 11.4863 20.3794 11.4609 20.4604C11.4203 20.5718 11.4254 20.6681 11.4711 20.8149C11.5168 20.9466 11.598 21.053 11.7148 21.129C11.8113 21.1948 11.9535 21.2455 12.0348 21.2455C12.1109 21.2455 12.2277 21.2252 12.2988 21.1948C12.3699 21.1695 12.6391 20.901 12.898 20.6073C13.152 20.3084 13.416 19.9944 13.477 19.9083C13.5379 19.8222 13.5887 19.6956 13.5938 19.6247C13.5988 19.5538 13.6039 19.4474 13.5988 19.3866C13.5938 19.3208 13.5125 19.1891 13.416 19.0929C13.2688 18.946 13.2027 18.9156 13.025 18.9156C12.9031 18.9206 12.7508 18.946 12.6848 18.9814C12.6137 19.0169 12.3242 19.3309 12.0348 19.6753Z" fill="#0429AE"/>
</svg>
