<svg width="28" height="28" viewBox="0 0 28 28" fill="none" xmlns="http://www.w3.org/2000/svg">
<path fill-rule="evenodd" clip-rule="evenodd" d="M6.89966 2.00469L15.9722 2C23.9992 2 25.0636 2.00469 25.223 2.07031C25.3168 2.10781 25.4856 2.22031 25.5887 2.31875C25.6965 2.4125 25.8278 2.57656 25.9826 2.86719L25.9966 13.3203C26.006 20.9422 25.9966 23.8484 25.9591 24.0547C25.9263 24.2094 25.8419 24.4672 25.7669 24.6312C25.6919 24.7906 25.5184 25.0438 25.3824 25.1891C25.2417 25.3391 25.0261 25.5266 24.8995 25.6109C24.7729 25.6953 24.5244 25.8172 24.0133 26H3.99269L3.66448 25.8828C3.48162 25.8172 3.23312 25.6953 3.10653 25.6109C2.97993 25.5266 2.76894 25.3438 2.63766 25.2031C2.50638 25.0625 2.33758 24.8281 2.26725 24.6875C2.19692 24.5469 2.10784 24.3125 2.07033 24.1719C2.00938 23.9469 2 22.8078 2 7.69531L2.13597 7.46094C2.2063 7.32969 2.33758 7.16563 2.42667 7.09062C2.51575 7.01562 2.6611 6.92188 2.75019 6.87969C2.88616 6.81875 3.16748 6.80469 5.98537 6.78125L5.99475 4.84531C6.00881 3.20469 6.01819 2.89062 6.08383 2.75C6.12603 2.66094 6.22918 2.50625 6.31827 2.40313C6.40735 2.30469 6.57145 2.17344 6.68867 2.1125L6.89966 2.00469ZM6.80589 3.02656L6.759 24.1953C6.59021 24.5938 6.48237 24.7953 6.41204 24.8984C6.34171 25.0016 6.27138 25.1141 6.25262 25.1469C6.22449 25.1937 8.01088 25.2031 15.1142 25.1937L24.0133 25.1797C24.4118 24.9875 24.6275 24.8234 24.7494 24.6922C24.876 24.5609 25.0214 24.3547 25.0776 24.2328L25.1855 24.0078L25.2089 3.07812L24.9276 2.79688H7.06845L6.80589 3.02656ZM2.84396 7.81719C2.81583 7.87812 2.80176 10.6625 2.81114 15.9594L2.82052 24.0125C3.01744 24.4109 3.18155 24.6266 3.30814 24.7484C3.43942 24.875 3.65041 25.0203 3.77232 25.0766C3.94111 25.1516 4.08646 25.1797 4.39122 25.1797C4.71005 25.1797 4.83665 25.1609 5.02419 25.0719C5.15548 25.0156 5.34302 24.8984 5.44617 24.8141C5.54932 24.7297 5.70874 24.5234 5.79782 24.3594L5.96193 24.0594L5.98537 7.58281C3.47224 7.5875 3.16748 7.60156 3.04557 7.65312C2.96118 7.69062 2.87209 7.76562 2.84396 7.81719ZM8.91579 4.81719H12.5964C16.1973 4.81719 16.2817 4.82188 16.488 4.91563C16.6052 4.96719 16.7599 5.06563 16.835 5.13594C16.91 5.20625 17.0178 5.36562 17.1913 5.73125V12.6688L17.0835 12.9031C17.0225 13.0297 16.8959 13.2078 16.8021 13.2875C16.7084 13.3719 16.5489 13.475 16.4552 13.5125C16.3004 13.5734 15.7894 13.5828 8.91579 13.5828L8.6626 13.4562C8.52194 13.3812 8.34846 13.25 8.27344 13.1609C8.20311 13.0719 8.10934 12.9031 8.07183 12.7859C8.01088 12.6078 8.0015 12.0828 8.0015 9.2C8.0015 6.3125 8.01088 5.79219 8.07183 5.61406C8.10934 5.49687 8.20311 5.32812 8.27344 5.23906C8.34846 5.15 8.52194 5.01875 8.6626 4.94375L8.91579 4.81719ZM8.82202 5.90938C8.80795 5.96563 8.80326 7.49844 8.80795 9.3125L8.82202 12.6078C9.05176 12.7906 9.15491 12.7906 12.6105 12.7906H16.1645L16.3942 12.5562V5.85312L16.1598 5.61875C9.1174 5.61875 9.04707 5.61875 8.94861 5.7125C8.89235 5.76406 8.83608 5.85313 8.82202 5.90938ZM18.6401 5.61875H23.7554L23.8727 5.73594C23.943 5.80625 23.9899 5.90469 23.9899 5.99375C23.9899 6.06875 23.9758 6.16719 23.9524 6.20938C23.9336 6.25156 23.8633 6.31719 23.7883 6.35C23.6851 6.40156 23.174 6.41562 18.6917 6.41562L18.551 6.275C18.4525 6.17656 18.4103 6.0875 18.4103 5.98906C18.415 5.90469 18.4572 5.80156 18.5276 5.73125L18.6401 5.61875ZM21.186 8.80625C23.1787 8.80625 23.6851 8.82031 23.7883 8.87188C23.8586 8.90469 23.9336 8.97031 23.9524 9.0125C23.9711 9.05469 23.9899 9.15312 23.9899 9.22812C23.9899 9.31719 23.943 9.41562 23.7601 9.60312H18.6448L18.5276 9.48594C18.4494 9.40781 18.4103 9.31875 18.4103 9.21875C18.4103 9.13438 18.4385 9.03125 18.4713 8.98906C18.4994 8.95156 18.5698 8.89531 18.6213 8.8625C18.687 8.825 19.4137 8.81094 21.186 8.80625ZM23.7461 12.0172L23.868 12.1344C23.9477 12.2094 23.9899 12.3031 23.9899 12.3922C23.9899 12.4719 23.9477 12.5938 23.8023 12.7906H18.6448L18.5276 12.6734C18.4572 12.6078 18.4103 12.5047 18.4103 12.4297C18.4103 12.3594 18.4432 12.2516 18.4854 12.1906C18.5276 12.1297 18.6073 12.0641 18.6588 12.0406C18.7151 12.0172 19.8826 12.0031 23.7461 12.0172ZM8.62509 15.2281H23.8023L23.8961 15.3594C23.9477 15.4297 23.9899 15.5516 23.9899 15.6266C23.9899 15.7156 23.9477 15.8094 23.7461 16.0016L16.3333 16.0156C12.2541 16.025 8.84546 16.0156 8.76106 16.0062C8.67667 15.9922 8.56883 15.9359 8.51725 15.8844C8.46099 15.8328 8.41879 15.7203 8.4141 15.6172C8.40472 15.4906 8.43286 15.4156 8.51725 15.3359L8.62509 15.2281ZM8.64854 18.4156H23.7507L23.868 18.5328C23.9477 18.6125 23.9852 18.7016 23.9852 18.8141C23.9852 18.9172 23.9524 19.0156 23.8914 19.0719C23.8398 19.1234 23.7507 19.1797 23.6945 19.1937C23.6335 19.2031 20.2155 19.2125 8.59696 19.1891L8.50788 19.0719C8.4563 19.0063 8.41879 18.8891 8.41879 18.8C8.42348 18.7062 8.46568 18.6031 8.53601 18.5328L8.64854 18.4156ZM18.9214 21.6031L19.0621 21.7438C19.1418 21.8188 19.2027 21.9266 19.2027 21.9781C19.2027 22.0297 19.1793 22.1187 19.1465 22.175C19.1183 22.2359 19.0621 22.3062 19.0199 22.3391C18.9636 22.3813 17.7727 22.3953 13.8108 22.4C8.71886 22.4047 8.67667 22.4 8.55007 22.3063C8.45161 22.2359 8.41879 22.1703 8.41879 22.0484C8.41879 21.9594 8.44692 21.8422 8.47505 21.7859C8.50788 21.7344 8.57352 21.6734 8.62978 21.65C8.68136 21.6266 10.9976 21.6078 18.9214 21.6031Z" fill="#0429AE"/>
</svg>
