<svg width="40" height="29" viewBox="0 0 40 29" fill="none" xmlns="http://www.w3.org/2000/svg">
<path d="M10.8314 0.461052C10.9955 0.340192 11.2847 0.187104 11.48 0.122645C11.777 0.0259578 13.8401 0.0098432 24.9607 0.0017859C36.5032 -0.0062714 38.1365 0.0098432 38.4804 0.114588C38.6992 0.187104 39.004 0.340192 39.1681 0.461052C39.3322 0.581911 39.551 0.807516 39.6448 0.960604C39.7464 1.11369 39.8714 1.38764 39.9261 1.5649C39.9808 1.75022 40.0121 2.06445 39.9886 2.29006C39.9652 2.51566 39.887 2.82184 39.8089 2.97493C39.7385 3.12802 39.5666 3.37779 39.426 3.52282C39.2931 3.67591 39.043 3.86929 38.5585 4.14324H11.4409L11.1284 3.96598C10.9564 3.86929 10.7064 3.67591 10.5735 3.52282C10.4328 3.37779 10.2609 3.12802 10.1906 2.97493C10.1124 2.82184 10.0343 2.51566 10.0108 2.29006C9.9952 2.07251 10.0186 1.74216 10.0733 1.5649C10.1281 1.38764 10.2531 1.11369 10.3469 0.960604C10.4485 0.807516 10.6673 0.581911 10.8314 0.461052Z" fill="#222222"/>
<path d="M0.898709 12.7645C1.07064 12.6517 1.35979 12.5309 1.55516 12.4906C1.75834 12.4503 9.54194 12.4261 38.4804 12.4423L38.832 12.6195C39.0274 12.7162 39.3009 12.9337 39.4494 13.103C39.5979 13.2722 39.7854 13.5703 39.8714 13.7717C39.9886 14.0457 40.0199 14.2551 39.9886 14.6177C39.9652 14.932 39.887 15.2301 39.7542 15.4637C39.6448 15.6652 39.4338 15.9311 39.2931 16.06C39.1446 16.1889 38.9024 16.35 38.7539 16.4226C38.5038 16.5434 36.7689 16.5515 1.51608 16.5515L1.16441 16.3742C0.969042 16.2775 0.695522 16.06 0.54704 15.8908C0.398558 15.7216 0.211001 15.4396 0.132853 15.2623C0.0625189 15.085 0 14.7628 0 14.5371C0 14.3196 0.0390743 14.0054 0.0937783 13.8523C0.148482 13.6911 0.281335 13.4252 0.390743 13.2641C0.507966 13.0949 0.734597 12.8693 0.898709 12.7645Z" fill="#222222"/>
<path d="M18.826 25.2131C18.9745 25.1083 19.2245 24.9713 19.373 24.9149C19.584 24.8424 21.7722 24.8183 28.9228 24.8102C36.1125 24.8102 38.2928 24.8344 38.5741 24.9149C38.7929 24.9713 39.0743 25.1406 39.2853 25.3339C39.4807 25.5112 39.7073 25.8013 39.7933 25.9785C39.9183 26.2122 39.9574 26.4539 39.9652 26.8648C39.9652 27.2677 39.9183 27.5175 39.8089 27.7511C39.7229 27.9284 39.5119 28.2104 39.34 28.3796C39.1446 28.573 38.8555 28.7422 38.5585 28.8469C38.1052 29 37.8317 29 19.8419 29L19.3965 28.8227C19.1464 28.726 18.826 28.5327 18.6775 28.4038C18.5368 28.2668 18.3571 28.0412 18.2789 27.9123C18.2008 27.7833 18.0914 27.4933 18.0445 27.2677C17.9898 26.9857 17.982 26.744 18.0367 26.462C18.0836 26.2444 18.2164 25.9141 18.3415 25.7368C18.4587 25.5595 18.6775 25.3259 18.826 25.2131Z" fill="#222222"/>
</svg>
